<?xml version="1.0" encoding="utf-8"?>
<!-- Generator: Adobe Illustrator 25.4.1, SVG Export Plug-In . SVG Version: 6.00 Build 0)  -->
<svg version="1.1" id="Capa_1" xmlns="http://www.w3.org/2000/svg" xmlns:xlink="http://www.w3.org/1999/xlink" x="0px" y="0px"
	 viewBox="0 0 600 160" style="enable-background:new 0 0 600 160;" xml:space="preserve">
<style type="text/css">
	.st0{fill:#DC0941;}
	.st1{fill:#FFFFFF;}
	.st2{fill-rule:evenodd;clip-rule:evenodd;fill:#EF7D00;}
</style>
<path class="st0" d="M596.01,149.21c-9.4,5.53-22.8,8.28-40.19,8.28c-20.6,0-37.2-6.24-49.89-18.77
	c-12.65-12.52-19.02-28.75-19.02-48.64c0-22.93,6.82-40.99,20.47-54.18c13.69-13.23,31.87-19.81,54.63-19.81
	c15.35,0,26.76,2.08,34.12,6.32v33.79c-8.99-6.61-18.85-9.9-29.5-9.9c-12.03,0-21.68,3.66-28.92,10.98
	c-7.28,7.32-10.94,17.35-10.94,30.12c0,12.32,3.45,22.05,10.36,29.17c6.91,7.11,16.31,10.69,28.17,10.69
	c10.49,0,20.72-3.37,30.71-10.03V149.21z"/>
<path class="st0" d="M481.62,97.86h-88.75c1.37,20.89,13.98,31.33,37.78,31.33c14.86,0,28-3.62,39.36-10.94v28.88
	c-12.27,6.91-28.34,10.36-48.27,10.36c-21.43,0-38.11-6.03-50.02-18.14c-11.94-12.11-17.89-29-17.89-50.6
	c0-21.55,6.37-39.03,19.02-52.47c12.69-13.48,28.63-20.18,47.81-20.18c19.1,0,34.04,5.78,44.77,17.35
	c10.78,11.57,16.19,27.5,16.19,47.73V97.86z M444.92,73.27c0-20.18-8.16-30.25-24.51-30.25c-6.74,0-12.73,2.79-17.93,8.28
	c-5.2,5.54-8.45,12.86-9.74,21.97H444.92z"/>
<path class="st0" d="M361.73,44.25h-29.11v89.03l-33.6,21.8V44.25h-37.6l14.53-28.15h120.57c-1.25,0.44-2.49,0.92-3.71,1.43
	c-8.48,3.58-16.09,8.93-22.8,16.06C366.89,36.91,364.13,40.46,361.73,44.25"/>
<path class="st1" d="M267.5,19.37l-43.74,86.06v52.2l-33.44-24.62v-27.11l-44.18-89.99h38.1l23.24,52.88
	c0.25,0.56,0.6,1.58,1.05,3.03c0.32-0.97,0.67-1.88,1.04-2.74c7.97-17.71,15.9-35.44,23.85-53.16h35.84L267.5,19.37z"/>
<path class="st1" d="M161.16,149.56c-5.02,2.46-10.77,4.31-17.26,5.52c-6.45,1.21-13.62,1.82-21.5,1.82
	c-10.26,0-19.49-1.54-27.68-4.63c-8.24-3.11-15.42-7.78-21.53-14.01c-6.09-6.21-10.67-13.46-13.71-21.73
	c-3.03-8.23-4.54-17.45-4.54-27.68c0-10.75,1.69-20.54,5.06-29.37c3.39-8.86,8.48-16.74,15.27-23.63
	c6.77-6.9,14.54-12.07,23.29-15.52c8.72-3.44,18.4-5.16,29.04-5.16c1.69,0,3.49,0.04,5.38,0.11c1.85,0.07,3.57,0.17,5.15,0.29
	l1.34,0.1l16.91,34.46l-5.59-2.1c-3.22-1.21-6.59-2.12-10.1-2.73c-3.51-0.61-7.19-0.91-11.02-0.91c-6.19,0-11.73,0.97-16.6,2.91
	c-4.83,1.93-9.08,4.83-12.72,8.7c-3.65,3.91-6.39,8.42-8.22,13.5c-1.84,5.13-2.76,10.9-2.76,17.31c0,6.24,0.87,11.85,2.62,16.82
	c1.73,4.91,4.32,9.23,7.77,12.94c3.44,3.7,7.49,6.48,12.12,8.32c4.68,1.86,10.01,2.8,15.98,2.8c5.72,0,11.16-0.68,16.32-2.05
	c5.16-1.36,10.07-3.42,14.72-6.17l3.58-2.12v31.54L161.16,149.56z"/>
<path class="st1" d="M14.36,152.94v-94.2c1.18,0.67,2.41,1.27,3.68,1.8c3.99,1.65,8.34,2.57,12.88,2.57c4.53,0,8.89-0.92,12.88-2.57
	c1.13-0.47,2.23-1,3.3-1.58v96.36H14.36V152.94z"/>
<path class="st2" d="M30.91,2.37c7.45,0,14.22,3.03,19.11,7.92c4.9,4.91,7.93,11.67,7.93,19.12c0,7.46-3.03,14.22-7.92,19.11
	c-4.91,4.9-11.67,7.93-19.12,7.93c-7.46,0-14.22-3.03-19.11-7.92c-4.9-4.91-7.93-11.67-7.93-19.12c0-7.45,3.03-14.22,7.92-19.11
	C16.69,5.4,23.45,2.37,30.91,2.37"/>
<g>
</g>
<g>
</g>
<g>
</g>
<g>
</g>
<g>
</g>
<g>
</g>
</svg>
