<?xml version="1.0" encoding="utf-8"?>
<!-- Generator: Adobe Illustrator 26.0.3, SVG Export Plug-In . SVG Version: 6.00 Build 0)  -->
<svg version="1.1" id="Capa_1" xmlns="http://www.w3.org/2000/svg" xmlns:xlink="http://www.w3.org/1999/xlink" x="0px" y="0px"
	 viewBox="0 0 361.1 125" style="enable-background:new 0 0 361.1 125;" xml:space="preserve">
<style type="text/css">
	.st0{fill:#FFFFFF;}
	.st1{fill-rule:evenodd;clip-rule:evenodd;fill:#FFFFFF;}
</style>
<polygon class="st0" points="36.9,86.7 0,86.7 0,20.2 13.3,20.2 13.3,73.4 36.9,73.4 "/>
<path class="st0" d="M144.3,80.4c0,3.5-0.7,6.8-2,9.8c-1.3,3.1-3.1,5.7-5.4,8c-2.3,2.3-5,4.1-8.1,5.4c-3.1,1.3-6.4,2-9.9,2l-6.3-0.1
	V92.9l6.2,0.1c2,0,3.7-0.3,5.1-0.8c1.4-0.5,2.6-1.2,3.5-2.1c1-0.9,1.7-1.9,2.3-3c0.6-1.1,1-2.3,1.4-3.6c-0.5,0.8-1.2,1.5-2.1,2
	c-0.9,0.5-1.9,0.9-3.1,1.3c-1.1,0.3-2.3,0.6-3.5,0.7c-1.2,0.1-2.4,0.2-3.4,0.2c-3.5,0-6.8-0.6-9.8-1.8c-3.1-1.2-5.8-2.9-8.1-5.2
	c-2.3-2.2-4.1-5-5.4-8.2c-1.3-3.2-2-6.9-2-11c0-3.7,0.7-7.2,2-10.4c1.3-3.2,3.1-6,5.4-8.3c2.3-2.4,5-4.2,8.1-5.5
	c3.1-1.3,6.4-2,9.8-2c1.6,0,3.2,0.2,4.8,0.6c1.6,0.4,3.1,1,4.6,1.7c1.5,0.7,2.9,1.5,4.2,2.5c1.3,0.9,2.6,2,3.8,3.1l4.9-5.9h3.1V80.4
	z M131.5,61.4c0-1.7-0.3-3.4-1-5c-0.7-1.6-1.6-3.1-2.7-4.3c-1.2-1.2-2.5-2.3-4-3c-1.5-0.8-3.1-1.1-4.9-1.1c-1.7,0-3.4,0.3-4.9,0.9
	c-1.5,0.6-2.8,1.5-4,2.6c-1.1,1.2-2,2.6-2.7,4.3c-0.6,1.7-1,3.6-1,5.8c0,2.1,0.3,3.9,1,5.6c0.6,1.7,1.5,3.1,2.7,4.2
	c1.1,1.2,2.5,2.1,4,2.7c1.5,0.6,3.2,0.9,4.9,0.9c1.7,0,3.4-0.4,4.9-1.1c1.5-0.8,2.9-1.8,4-3c1.1-1.2,2-2.7,2.7-4.3
	C131.2,64.8,131.5,63.1,131.5,61.4z M76.5,61.4c0-2-0.3-3.9-1-5.5c-0.7-1.6-1.6-3.1-2.7-4.3c-1.1-1.2-2.5-2.1-4-2.7
	c-1.5-0.6-3.1-0.9-4.9-0.9c-1.7,0-3.4,0.3-4.9,0.9c-1.5,0.6-2.8,1.5-4,2.7c-1.1,1.2-2,2.6-2.7,4.3c-0.6,1.7-1,3.5-1,5.5
	c0,1.9,0.3,3.7,1,5.3c0.6,1.6,1.5,3.1,2.7,4.3c1.1,1.2,2.5,2.2,4,2.8c1.5,0.7,3.2,1,4.9,1c1.7,0,3.4-0.3,4.9-1
	c1.5-0.6,2.9-1.6,4-2.7c1.1-1.2,2-2.6,2.7-4.3C76.1,65.2,76.5,63.4,76.5,61.4z M89.2,61.4c0,3.7-0.7,7.2-2,10.4
	c-1.3,3.2-3.1,6-5.4,8.3c-2.3,2.3-5,4.2-8,5.5c-3.1,1.3-6.4,2-9.9,2c-3.5,0-6.8-0.7-9.8-2c-3.1-1.3-5.8-3.2-8.1-5.5
	c-2.3-2.3-4.1-5.1-5.4-8.3c-1.3-3.2-2-6.6-2-10.4c0-3.8,0.7-7.3,2-10.5c1.3-3.2,3.1-6,5.4-8.3c2.3-2.3,5-4.2,8.1-5.5
	c3.1-1.3,6.4-2,9.8-2c3.5,0,6.8,0.6,9.9,1.9c3.1,1.3,5.8,3,8,5.3c2.3,2.3,4.1,5.1,5.4,8.3C88.5,53.8,89.2,57.4,89.2,61.4z"/>
<path class="st0" d="M166.6,86.7h-12.6V17.3h12.6v21.9c1.5-1.1,3.1-2,4.7-2.4c1.6-0.5,3.3-0.7,4.9-0.7c3.1,0,5.9,0.6,8.6,1.7
	c2.7,1.2,5,2.7,7,4.8c2,2,3.6,4.4,4.7,7.1c1.2,2.7,1.7,5.6,1.7,8.6v28.4h-12.7V58.3h0.1c0-1.3-0.3-2.5-0.7-3.7c-0.5-1.2-1.2-2.2-2-3
	c-0.9-0.9-1.9-1.5-3-2c-1.1-0.5-2.4-0.7-3.7-0.7c-1.3,0-2.6,0.3-3.8,0.7c-1.2,0.5-2.2,1.2-3.1,2c-0.9,0.9-1.5,1.9-2,3
	c-0.5,1.2-0.7,2.4-0.7,3.7V86.7z"/>
<rect x="207.3" y="37" class="st0" width="12.7" height="49.6"/>
<path class="st0" d="M360.3,47.9l-10.9,10.9l-0.7-2.1c-0.2-0.6-0.5-1.1-0.7-1.6h0c-0.3-0.5-0.6-1-0.9-1.4c-0.4-0.5-0.8-0.9-1.2-1.3
	c-0.4-0.4-0.8-0.7-1.3-1.1l0,0c-0.4-0.3-0.9-0.6-1.4-0.8c-0.5-0.2-1-0.4-1.5-0.6l0,0c-0.5-0.2-1-0.3-1.6-0.4
	c-0.5-0.1-1.1-0.1-1.6-0.1c-0.8,0-1.5,0.1-2.2,0.2h0c-0.7,0.2-1.4,0.4-2.1,0.7c-1.3,0.6-2.5,1.5-3.5,2.6l0,0
	c-0.5,0.6-0.9,1.2-1.3,1.9c-0.4,0.7-0.8,1.4-1,2.2v0c-0.3,0.8-0.5,1.6-0.7,2.5c-0.1,0.9-0.2,1.8-0.2,2.8c0,0.8,0.1,1.5,0.2,2.2
	c0.1,0.7,0.4,1.4,0.7,2.1v0c0.3,0.7,0.6,1.3,1,1.9l0,0c0.4,0.6,0.8,1.1,1.3,1.6c0.5,0.5,1,1,1.6,1.4c0.6,0.4,1.2,0.7,1.9,1
	c0.7,0.3,1.4,0.5,2.1,0.6v0c0.7,0.1,1.4,0.2,2.2,0.2c0.6,0,1.1,0,1.6-0.1c0.5-0.1,1.1-0.2,1.6-0.3c0.5-0.2,1-0.3,1.5-0.6
	c0.5-0.2,1-0.5,1.4-0.7l0,0c0.5-0.3,0.9-0.6,1.3-0.9c0.4-0.3,0.8-0.7,1.1-1.1c0.4-0.4,0.7-0.9,1-1.3c0.3-0.4,0.5-0.9,0.7-1.4
	l0.8-1.9l11.6,11.6l-0.7,1c-0.6,0.9-1.3,1.7-2,2.5c-0.7,0.8-1.5,1.5-2.3,2.2l0,0c-0.8,0.7-1.6,1.3-2.5,1.9c-0.9,0.6-1.8,1.1-2.7,1.6
	l0,0c-0.9,0.5-1.9,0.9-2.9,1.3c-1,0.4-2,0.7-3,0.9c-1.1,0.3-2.1,0.5-3.2,0.6c-1.1,0.1-2.1,0.2-3.2,0.2c-1.8,0-3.6-0.2-5.3-0.5
	c-1.7-0.4-3.4-0.9-5-1.6c-1.6-0.7-3.1-1.5-4.6-2.5c-1.4-1-2.7-2-3.9-3.2l0,0c-1.2-1.2-2.3-2.5-3.3-3.9c-1-1.4-1.8-2.9-2.5-4.5
	c-0.7-1.6-1.2-3.3-1.6-5c-0.4-1.7-0.5-3.5-0.5-5.4c0-2,0.2-3.9,0.5-5.8c0.3-1.9,0.9-3.7,1.6-5.4c0.7-1.7,1.5-3.3,2.5-4.9
	c1-1.5,2-2.9,3.3-4.2c1.2-1.3,2.5-2.5,3.9-3.5c1.4-1,2.9-1.9,4.6-2.7c1.6-0.8,3.3-1.3,5.1-1.7c1.7-0.4,3.5-0.6,5.4-0.6
	c1.1,0,2.1,0.1,3.2,0.2c1.1,0.1,2.2,0.4,3.2,0.6c1.1,0.3,2.1,0.6,3.1,1c1,0.4,2,0.9,2.9,1.4c1,0.5,1.9,1.1,2.8,1.8
	c0.9,0.6,1.7,1.4,2.5,2.1c0.8,0.8,1.6,1.6,2.3,2.5c0.7,0.9,1.3,1.8,1.9,2.8l0.6,0.9L360.3,47.9z M290.2,49.4l-0.2,0
	c-0.2,0-0.5,0-0.8,0c-0.8,0-1.5,0.1-2.3,0.2c-0.7,0.1-1.4,0.4-2.1,0.6c-0.7,0.3-1.3,0.6-1.9,1c-0.6,0.4-1.1,0.8-1.6,1.4
	c-0.5,0.5-0.9,1.1-1.3,1.7c-0.4,0.6-0.7,1.3-1,2.1c-0.3,0.7-0.5,1.5-0.7,2.4c-0.1,0.8-0.2,1.7-0.2,2.7c0,0.3,0,0.5,0,0.7
	c0,0.2,0,0.5,0.1,0.8c0,0.3,0,0.6,0.1,0.8c0,0.3,0.1,0.6,0.1,0.8l0.1,0.5L290.2,49.4z M288.9,73.5l0.3,0c0.6,0,1.1,0,1.6-0.1
	c0.5-0.1,1.1-0.2,1.6-0.3c0.5-0.2,1-0.3,1.5-0.6c0.5-0.2,0.9-0.5,1.4-0.8l0,0c0.4-0.3,0.9-0.6,1.3-0.9c0.4-0.3,0.8-0.7,1.1-1.1l0,0
	c0.3-0.4,0.7-0.8,1-1.3c0.3-0.4,0.5-0.9,0.7-1.4l0.8-1.9l11.6,11.6l-0.7,1c-0.6,0.9-1.3,1.7-2,2.5c-0.7,0.8-1.5,1.5-2.3,2.2l0,0
	c-0.8,0.7-1.6,1.3-2.5,1.9c-0.9,0.6-1.8,1.1-2.7,1.6l0,0c-0.9,0.5-1.9,0.9-2.9,1.3c-1,0.4-2,0.7-3,0.9c-1.1,0.3-2.1,0.5-3.2,0.6
	c-1.1,0.1-2.1,0.2-3.2,0.2c-1.8,0-3.6-0.2-5.3-0.5c-1.7-0.3-3.4-0.9-5-1.5l0,0c-1.6-0.7-3.1-1.5-4.6-2.5c-1.4-1-2.8-2.1-4-3.3
	c-1.2-1.2-2.3-2.6-3.3-4c-1-1.5-1.8-3-2.5-4.7c-0.7-1.7-1.2-3.5-1.6-5.3c-0.4-1.9-0.5-3.8-0.5-5.8c0-2,0.2-4,0.5-5.9
	c0.4-1.9,0.9-3.7,1.6-5.4c0.7-1.7,1.5-3.3,2.5-4.7c1-1.5,2-2.8,3.3-4c1.2-1.2,2.5-2.3,4-3.2c1.4-0.9,2.9-1.7,4.6-2.4
	c1.6-0.7,3.3-1.2,5-1.5c1.7-0.3,3.5-0.5,5.3-0.5c1.1,0,2.2,0.1,3.2,0.2c1.1,0.1,2.1,0.3,3.2,0.6c1,0.3,2.1,0.6,3.1,1
	c1,0.4,2,0.8,2.9,1.3c0.9,0.5,1.8,1,2.7,1.6c0.9,0.6,1.7,1.3,2.5,2c0.8,0.7,1.6,1.5,2.3,2.3c0.7,0.8,1.4,1.6,2,2.5l0.6,0.9
	L288.9,73.5z"/>
<path class="st1" d="M274.3,106.6V89.5c-11.3-0.4-18.2-6.7-21.7-14.3c-3.4-7.5-2.5-32-2.2-41.1l22.1,0v-3.1L246.1,31v-2.9l68.6,0
	v-2.9l-60.2,0c0-1.3,0-1.4,0-2.7h104.9v-4.1c-44.6,0-88.5,0-133.1,0v15.6h5.8c-0.3,17.6-0.5,39.2,3.9,48.4
	C242.3,95.8,254,106.1,274.3,106.6"/>
<path class="st0" d="M220.9,27.5c0,1-0.2,1.9-0.5,2.7c-0.4,0.8-0.9,1.6-1.5,2.2c-0.6,0.6-1.4,1.1-2.2,1.5c-0.8,0.4-1.8,0.6-2.7,0.6
	c-1,0-1.9-0.2-2.7-0.6c-0.9-0.4-1.6-0.9-2.2-1.5c-0.6-0.6-1.1-1.4-1.5-2.2c-0.4-0.8-0.5-1.7-0.5-2.7c0-1,0.2-1.8,0.5-2.7
	c0.4-0.8,0.9-1.6,1.5-2.2c0.6-0.6,1.4-1.1,2.2-1.5c0.8-0.4,1.8-0.5,2.7-0.5c1,0,1.9,0.2,2.7,0.5c0.9,0.4,1.6,0.9,2.2,1.5
	c0.6,0.6,1.1,1.4,1.5,2.2C220.8,25.7,220.9,26.6,220.9,27.5"/>
<rect x="226.2" class="st1" width="133.1" height="16.6"/>
<g>
	<path class="st1" d="M114.6,113.6L114.6,113.6c-0.1,0.1-0.1,0.2-0.1,0.4c0,0.2-0.1,0.4-0.2,0.6l-1.2,3.4h2.8l-1.1-3.4
		C114.8,114.3,114.7,114,114.6,113.6z"/>
	<path class="st1" d="M78.2,113h-1.6v2.9h1.7c0.4,0,0.7-0.2,1-0.5c0.3-0.3,0.4-0.7,0.4-1.1c0-0.4-0.1-0.8-0.4-1
		C79.1,113.1,78.7,113,78.2,113z"/>
	<path class="st1" d="M180.6,112.9c-0.9,0-1.6,0.3-2.1,1c-0.5,0.6-0.7,1.6-0.7,2.8c0,1.2,0.2,2.2,0.7,2.8c0.5,0.6,1.2,1,2.1,1
		c0.9,0,1.6-0.3,2.1-1c0.5-0.6,0.7-1.6,0.7-2.8c0-1.2-0.2-2.2-0.7-2.8C182.2,113.2,181.5,112.9,180.6,112.9z"/>
	<path class="st1" d="M66,112.9c-0.9,0-1.6,0.3-2.1,1c-0.5,0.6-0.7,1.6-0.7,2.8c0,1.2,0.2,2.2,0.7,2.8c0.5,0.6,1.2,1,2.1,1
		c0.9,0,1.6-0.3,2.1-1c0.5-0.6,0.7-1.6,0.7-2.8c0-1.2-0.2-2.2-0.7-2.8C67.6,113.2,66.9,112.9,66,112.9z"/>
	<path class="st1" d="M202.9,112.9c-0.9,0-1.6,0.3-2.1,1c-0.5,0.6-0.7,1.6-0.7,2.8c0,1.2,0.2,2.2,0.7,2.8c0.5,0.6,1.2,1,2.1,1
		c0.9,0,1.6-0.3,2.1-1c0.5-0.6,0.7-1.6,0.7-2.8c0-1.2-0.2-2.2-0.7-2.8C204.5,113.2,203.8,112.9,202.9,112.9z"/>
	<path class="st1" d="M43.5,113.6L43.5,113.6c-0.1,0.1-0.1,0.2-0.1,0.4c0,0.2-0.1,0.4-0.2,0.6l-1.2,3.4h2.8l-1.1-3.4
		C43.6,114.3,43.6,114,43.5,113.6z"/>
	<path class="st1" d="M245.6,112.9c-0.9,0-1.6,0.3-2.1,1c-0.5,0.6-0.7,1.6-0.7,2.8c0,1.2,0.2,2.2,0.7,2.8c0.5,0.6,1.2,1,2.1,1
		c0.9,0,1.6-0.3,2.1-1c0.5-0.6,0.7-1.6,0.7-2.8c0-1.2-0.2-2.2-0.7-2.8C247.2,113.2,246.5,112.9,245.6,112.9z"/>
	<path class="st1" d="M0,108.3V125h274.3v-16.7H0z M35.8,121.6c0,0.3-0.3,0.4-0.8,0.4h-0.3c-0.5,0-0.8-0.1-0.8-0.4v-6.2
		c0-0.3,0-0.6,0-0.8l-0.1,0c-0.1,0.2-0.2,0.5-0.4,0.6l-2.2,3.8c-0.1,0.2-0.3,0.3-0.5,0.3h-0.5c-0.2,0-0.4-0.1-0.5-0.3l-2.2-3.9
		c-0.1-0.2-0.2-0.4-0.4-0.6l-0.1,0c0,0.2,0,0.4,0,0.8v6.3c0,0.3-0.3,0.4-0.8,0.4H26c-0.5,0-0.8-0.1-0.8-0.4v-9.9
		c0-0.3,0.3-0.4,0.8-0.4h0.7c0.4,0,0.7,0.1,0.9,0.4l2.7,4.7c0.1,0.2,0.2,0.3,0.2,0.5c0-0.1,0.1-0.3,0.2-0.5l2.7-4.7
		c0.1-0.2,0.4-0.4,0.8-0.4H35c0.5,0,0.8,0.1,0.8,0.4V121.6z M47.4,122h-0.5c-0.5,0-0.7-0.1-0.8-0.3l-0.7-2.1h-3.9l-0.7,2.1
		c-0.1,0.2-0.3,0.3-0.7,0.3h-0.4c-0.6,0-0.8-0.1-0.8-0.3c0,0,0-0.1,0.1-0.3l3.5-10c0.1-0.2,0.3-0.3,0.8-0.3h0.7
		c0.5,0,0.7,0.1,0.8,0.3l3.5,10c0,0.1,0,0.2,0,0.3C48.1,121.9,47.9,122,47.4,122z M58.4,111.9l-3.1,4.9v4.8c0,0.3-0.3,0.4-0.8,0.4
		h-0.4c-0.5,0-0.8-0.1-0.8-0.4v-4.9l-3.1-4.9c-0.1-0.2-0.2-0.3-0.2-0.4c0-0.2,0.3-0.3,0.9-0.3h0.5c0.4,0,0.7,0.1,0.8,0.3l2.1,3.5
		l2.1-3.5c0.1-0.2,0.4-0.3,0.8-0.3h0.4c0.6,0,0.8,0.1,0.8,0.3C58.6,111.6,58.5,111.7,58.4,111.9z M69.6,120.7
		c-0.8,0.9-2,1.4-3.6,1.4c-1.6,0-2.8-0.5-3.6-1.4c-0.8-0.9-1.3-2.3-1.3-4.1c0-1.8,0.4-3.1,1.3-4.1c0.8-0.9,2-1.4,3.6-1.4
		c1.6,0,2.8,0.5,3.6,1.4c0.8,0.9,1.3,2.3,1.3,4.1C70.9,118.4,70.5,119.7,69.6,120.7z M81.8,122h-0.5c-0.5,0-0.7-0.1-0.8-0.3l-1.2-3
		c-0.2-0.4-0.4-0.7-0.7-0.9c-0.3-0.2-0.6-0.2-1.1-0.2h-0.9v4c0,0.3-0.3,0.4-0.8,0.4h-0.4c-0.5,0-0.8-0.1-0.8-0.4v-9.8
		c0-0.2,0-0.3,0.1-0.4c0.1-0.1,0.2-0.1,0.4-0.1h2.9c1.3,0,2.2,0.2,2.9,0.7c0.6,0.5,0.9,1.2,0.9,2.1c0,0.6-0.2,1.1-0.5,1.5
		c-0.3,0.4-0.8,0.8-1.3,1v0.1c0.2,0.1,0.4,0.3,0.6,0.5c0.2,0.3,0.4,0.6,0.6,1l1.3,3.3c0,0.1,0.1,0.2,0.1,0.3
		C82.6,121.9,82.4,122,81.8,122z M87.8,121.6c0,0.3-0.3,0.5-0.8,0.5h-0.4c-0.6,0-0.8-0.2-0.8-0.5v-9.9c0-0.3,0.3-0.5,0.8-0.5H87
		c0.5,0,0.8,0.2,0.8,0.5V121.6z M97.1,121.3c-0.7,0.5-1.5,0.8-2.5,0.8c-0.7,0-1.3-0.1-1.8-0.2c-0.5-0.1-1-0.3-1.3-0.5
		c-0.3-0.2-0.4-0.4-0.4-0.5c0-0.2,0.1-0.4,0.3-0.7c0.2-0.3,0.4-0.4,0.5-0.4c0.1,0,0.2,0.1,0.4,0.2c0.3,0.2,0.6,0.3,0.9,0.4
		c0.3,0.1,0.7,0.2,1.1,0.2c0.5,0,0.8-0.1,1.2-0.3c0.3-0.2,0.5-0.6,0.5-1c0-0.3-0.1-0.5-0.2-0.7c-0.2-0.2-0.4-0.3-0.6-0.5
		c-0.2-0.1-0.6-0.3-1-0.5l-0.5-0.2c-0.5-0.2-0.9-0.4-1.2-0.7c-0.3-0.2-0.6-0.5-0.8-0.9c-0.2-0.4-0.3-0.9-0.3-1.5
		c0-0.6,0.2-1.2,0.5-1.7c0.3-0.5,0.8-0.8,1.3-1c0.5-0.2,1.1-0.3,1.8-0.3c0.5,0,0.9,0.1,1.3,0.2c0.4,0.1,0.8,0.2,1,0.4
		c0.2,0.2,0.3,0.3,0.3,0.5c0,0.2-0.1,0.4-0.3,0.7c-0.2,0.3-0.3,0.4-0.5,0.4c-0.1,0-0.1,0-0.2-0.1c-0.1-0.1-0.2-0.1-0.3-0.1
		c-0.4-0.2-0.8-0.3-1.3-0.3c-0.6,0-1,0.1-1.2,0.3c-0.3,0.2-0.4,0.5-0.4,0.8c0,0.3,0.1,0.5,0.2,0.7c0.2,0.2,0.3,0.3,0.6,0.5
		c0.2,0.1,0.6,0.3,1,0.4c0.6,0.2,1.1,0.5,1.4,0.7c0.4,0.2,0.7,0.5,1,1c0.3,0.4,0.4,0.9,0.4,1.6C98.1,120,97.8,120.8,97.1,121.3z
		 M108.5,112.3c0,0.2,0,0.4-0.1,0.5c-0.1,0.1-0.2,0.2-0.3,0.2h-2.6v8.6c0,0.3-0.3,0.4-0.8,0.4h-0.4c-0.5,0-0.8-0.1-0.8-0.4V113h-2.6
		c-0.1,0-0.2-0.1-0.3-0.2c-0.1-0.1-0.1-0.3-0.1-0.5v-0.4c0-0.2,0-0.4,0.1-0.5c0.1-0.1,0.2-0.2,0.3-0.2h7.2c0.1,0,0.2,0.1,0.3,0.2
		c0.1,0.1,0.1,0.3,0.1,0.5V112.3z M118.5,122H118c-0.5,0-0.7-0.1-0.8-0.3l-0.7-2.1h-3.9l-0.7,2.1c-0.1,0.2-0.3,0.3-0.7,0.3h-0.4
		c-0.6,0-0.8-0.1-0.8-0.3c0,0,0-0.1,0.1-0.3l3.5-10c0.1-0.2,0.3-0.3,0.8-0.3h0.7c0.5,0,0.7,0.1,0.8,0.3l3.5,10c0,0.1,0,0.2,0,0.3
		C119.3,121.9,119,122,118.5,122z M138.6,112.3c0,0.2,0,0.4-0.1,0.5c-0.1,0.1-0.2,0.2-0.3,0.2h-2.6v8.6c0,0.3-0.3,0.4-0.8,0.4h-0.4
		c-0.5,0-0.8-0.1-0.8-0.4V113H131c-0.1,0-0.2-0.1-0.3-0.2c-0.1-0.1-0.1-0.3-0.1-0.5v-0.4c0-0.2,0-0.4,0.1-0.5
		c0.1-0.1,0.2-0.2,0.3-0.2h7.2c0.1,0,0.2,0.1,0.3,0.2c0.1,0.1,0.1,0.3,0.1,0.5V112.3z M148.3,121.3c0,0.2,0,0.4-0.1,0.5
		c-0.1,0.1-0.2,0.2-0.3,0.2h-5.4c-0.2,0-0.3,0-0.4-0.1c-0.1-0.1-0.1-0.2-0.1-0.4v-9.6c0-0.2,0-0.4,0.1-0.4c0.1-0.1,0.2-0.1,0.4-0.1
		h5.4c0.1,0,0.2,0.1,0.3,0.2c0.1,0.1,0.1,0.3,0.1,0.5v0.4c0,0.2,0,0.4-0.1,0.5c-0.1,0.1-0.2,0.2-0.3,0.2h-3.9v2.7h3.5
		c0.1,0,0.2,0.1,0.3,0.2c0.1,0.1,0.1,0.3,0.1,0.5v0.4c0,0.2,0,0.4-0.1,0.5c-0.1,0.1-0.2,0.2-0.3,0.2h-3.5v2.9h3.9
		c0.1,0,0.2,0.1,0.3,0.2c0.1,0.1,0.1,0.3,0.1,0.5V121.3z M159.4,121.5c-0.3,0.2-0.8,0.3-1.3,0.4c-0.5,0.1-1,0.2-1.5,0.2
		c-1.7,0-3-0.4-3.8-1.3c-0.8-0.9-1.2-2.3-1.2-4.2c0-3.6,1.7-5.5,5.1-5.5c0.5,0,1,0.1,1.5,0.2c0.5,0.1,0.9,0.2,1.2,0.4
		c0.3,0.1,0.4,0.3,0.4,0.5c0,0.1,0,0.3-0.1,0.5c-0.1,0.2-0.2,0.4-0.3,0.5c-0.1,0.2-0.2,0.2-0.3,0.2c0,0-0.2-0.1-0.4-0.2
		c-0.2-0.1-0.5-0.2-0.8-0.3c-0.3-0.1-0.7-0.1-1.1-0.1c-1,0-1.8,0.3-2.3,0.9c-0.5,0.6-0.7,1.6-0.7,2.8c0,1.3,0.2,2.2,0.7,2.8
		c0.5,0.6,1.2,0.9,2.2,0.9c0.5,0,0.9-0.1,1.2-0.2c0.3-0.1,0.7-0.2,1-0.4c0.2-0.1,0.3-0.1,0.3-0.1c0.1,0,0.2,0.1,0.3,0.2
		c0.1,0.1,0.2,0.3,0.3,0.5c0.1,0.2,0.1,0.3,0.1,0.4C159.9,121.1,159.8,121.3,159.4,121.5z M172,121.6c0,0.3-0.3,0.4-0.8,0.4h-0.5
		c-0.2,0-0.4,0-0.5-0.1c-0.1-0.1-0.2-0.1-0.3-0.3l-4-6.1c-0.2-0.3-0.4-0.6-0.5-0.9l-0.1,0c0,0.2,0,0.6,0,1v5.9
		c0,0.3-0.3,0.4-0.8,0.4h-0.3c-0.5,0-0.8-0.1-0.8-0.4v-9.9c0-0.3,0.3-0.4,0.8-0.4h0.6c0.2,0,0.4,0,0.5,0.1c0.1,0.1,0.2,0.1,0.3,0.3
		l3.9,6c0.2,0.3,0.4,0.6,0.5,0.9l0.1,0c0-0.2,0-0.6,0-1v-5.8c0-0.3,0.3-0.4,0.8-0.4h0.3c0.5,0,0.8,0.1,0.8,0.4V121.6z M184.2,120.7
		c-0.8,0.9-2,1.4-3.6,1.4c-1.6,0-2.8-0.5-3.6-1.4c-0.8-0.9-1.3-2.3-1.3-4.1c0-1.8,0.4-3.1,1.3-4.1c0.8-0.9,2-1.4,3.6-1.4
		c1.6,0,2.8,0.5,3.6,1.4c0.8,0.9,1.3,2.3,1.3,4.1C185.5,118.4,185.1,119.7,184.2,120.7z M195.4,121.3c0,0.2,0,0.4-0.1,0.5
		c-0.1,0.1-0.2,0.2-0.3,0.2h-5.1c-0.2,0-0.3,0-0.4-0.1c-0.1-0.1-0.1-0.2-0.1-0.4v-9.8c0-0.3,0.3-0.4,0.8-0.4h0.4
		c0.3,0,0.5,0,0.6,0.1c0.1,0.1,0.2,0.2,0.2,0.3v8.6h3.6c0.1,0,0.2,0.1,0.3,0.2c0.1,0.1,0.1,0.3,0.1,0.5V121.3z M206.5,120.7
		c-0.8,0.9-2,1.4-3.6,1.4c-1.6,0-2.8-0.5-3.6-1.4c-0.8-0.9-1.3-2.3-1.3-4.1c0-1.8,0.4-3.1,1.3-4.1c0.8-0.9,2-1.4,3.6-1.4
		c1.6,0,2.8,0.5,3.6,1.4c0.8,0.9,1.3,2.3,1.3,4.1C207.8,118.4,207.3,119.7,206.5,120.7z M219.6,120.9c0,0.4-0.4,0.7-1.1,0.9
		c-0.7,0.2-1.5,0.3-2.4,0.3c-1.7,0-2.9-0.4-3.7-1.3c-0.8-0.9-1.2-2.3-1.2-4.1c0-3.7,1.7-5.5,5.1-5.5c0.5,0,1,0,1.5,0.1
		c0.5,0.1,0.9,0.2,1.2,0.4c0.3,0.2,0.5,0.3,0.5,0.5c0,0.1,0,0.3-0.1,0.5c-0.1,0.2-0.2,0.4-0.3,0.5c-0.1,0.2-0.3,0.2-0.4,0.2
		c0,0-0.2-0.1-0.4-0.2c-0.2-0.1-0.5-0.2-0.8-0.3c-0.3-0.1-0.7-0.1-1.1-0.1c-1,0-1.8,0.3-2.3,0.9c-0.5,0.6-0.7,1.6-0.7,2.8
		c0,2.5,1,3.8,2.9,3.8c0.5,0,1,0,1.5-0.1v-2.4H216c-0.1,0-0.2-0.1-0.3-0.2c-0.1-0.1-0.1-0.3-0.1-0.5v-0.4c0-0.2,0-0.4,0.1-0.5
		c0.1-0.1,0.2-0.2,0.3-0.2h3c0.2,0,0.3,0,0.4,0.1c0.1,0.1,0.1,0.2,0.1,0.4V120.9z M225.6,121.6c0,0.3-0.3,0.5-0.8,0.5h-0.4
		c-0.6,0-0.8-0.2-0.8-0.5v-9.9c0-0.3,0.3-0.5,0.8-0.5h0.4c0.5,0,0.8,0.2,0.8,0.5V121.6z M237.2,121.5c-0.3,0.2-0.8,0.3-1.3,0.4
		c-0.5,0.1-1,0.2-1.5,0.2c-1.7,0-3-0.4-3.8-1.3c-0.8-0.9-1.2-2.3-1.2-4.2c0-3.6,1.7-5.5,5.1-5.5c0.5,0,1,0.1,1.5,0.2
		c0.5,0.1,0.9,0.2,1.2,0.4c0.3,0.1,0.4,0.3,0.4,0.5c0,0.1,0,0.3-0.1,0.5c-0.1,0.2-0.2,0.4-0.3,0.5c-0.1,0.2-0.2,0.2-0.3,0.2
		c0,0-0.2-0.1-0.4-0.2c-0.2-0.1-0.5-0.2-0.8-0.3c-0.3-0.1-0.7-0.1-1.1-0.1c-1,0-1.8,0.3-2.3,0.9c-0.5,0.6-0.7,1.6-0.7,2.8
		c0,1.3,0.2,2.2,0.7,2.8c0.5,0.6,1.2,0.9,2.2,0.9c0.5,0,0.9-0.1,1.2-0.2c0.3-0.1,0.7-0.2,1-0.4c0.2-0.1,0.3-0.1,0.3-0.1
		c0.1,0,0.2,0.1,0.3,0.2c0.1,0.1,0.2,0.3,0.3,0.5c0.1,0.2,0.1,0.3,0.1,0.4C237.7,121.1,237.6,121.3,237.2,121.5z M249.2,120.7
		c-0.8,0.9-2,1.4-3.6,1.4c-1.6,0-2.8-0.5-3.6-1.4c-0.8-0.9-1.3-2.3-1.3-4.1c0-1.8,0.4-3.1,1.3-4.1c0.8-0.9,2-1.4,3.6-1.4
		c1.6,0,2.8,0.5,3.6,1.4c0.8,0.9,1.3,2.3,1.3,4.1C250.4,118.4,250,119.7,249.2,120.7z"/>
</g>
</svg>
