<?xml version="1.0" encoding="utf-8"?>
<!-- Generator: Adobe Illustrator 26.0.3, SVG Export Plug-In . SVG Version: 6.00 Build 0)  -->
<svg version="1.1" id="Capa_1" xmlns="http://www.w3.org/2000/svg" xmlns:xlink="http://www.w3.org/1999/xlink" x="0px" y="0px"
	 viewBox="0 0 429.7 75.6" style="enable-background:new 0 0 429.7 75.6;" xml:space="preserve">
<style type="text/css">
	.st0{fill:#FFFFFF;}
</style>
<g>
	<path class="st0" d="M194.9,74.3c-5.9,0-11.4,0-17,0c0-1,0-1.9,0-2.8c0-19.7,0-39.3-0.1-59c0-1.9,0.5-2.8,2.2-3.6
		c4.8-2.1,9.6-4.4,14.7-6.7c0,9.4,0,18.2,0,27.2c9.5,0,18.8,0,28.3,0c0-9.1,0-18.1,0-27.4c5.7,0,11.2,0,16.8,0c0,23.9,0,47.9,0,72.1
		c-5.6,0-11,0-16.7,0c0-9.9,0-19.8,0-29.9c-9.6,0-18.8,0-28.4,0C194.9,54.2,194.9,64.1,194.9,74.3z"/>
	<path class="st0" d="M156.1,46c-4.2-0.2-4.2-0.2-4.2-4.4c0-2.8,0-5.6,0-8.7c6.8,0,13.5,0,20.6,0c0,1,0,2.1,0,3.2
		c0,10.5-0.1,21,0.1,31.5c0,2.5-0.6,3.7-3.1,4.3c-13.8,3.5-27.5,4.9-41.3,0.2c-12.8-4.5-21.5-16.8-21.6-30.5
		c-0.1-7.4,0.4-14.6,4.1-21.2c5.3-9.1,13.2-14.8,23.3-17.4c11.9-3,23.7-2.8,35.3,1.3c0.3,0.1,0.5,0.3,0.9,0.5
		c-1.2,4.4-2.4,8.7-3.6,13.1c-9.1-3.2-18.2-4.2-27.2-1.7c-9.6,2.6-15,10.5-15.3,20.4c-0.1,6.8,1.2,13,6.1,18
		c5.8,5.9,13.1,7.8,21.1,6.6c5-0.7,4.9-0.9,4.9-5.9C156.1,52.2,156.1,49.1,156.1,46z"/>
	<path class="st0" d="M426.7,60.1c0.7,3.9,1.5,8,2.4,12.6c-16.9,4.2-33,5.4-47.3-6.4c-7.3-6.1-10.7-14.3-11.2-23.8
		c-0.6-11,1.4-21,9.2-29.3c6.5-6.9,14.7-11,24.1-11.8c7.8-0.7,15.7-0.9,23.3,1.6c2.3,0.8,2.7,1.8,2.1,4c-0.8,2.6-1.5,5.2-2,7.9
		c-0.4,1.9-1,2.5-3.1,1.8c-6.3-2.1-12.8-2.9-19.3-1.3c-10.9,2.6-17.3,11.7-16.9,23.6c0.5,14.5,9.2,22.9,23.7,22.7
		C416.6,61.6,421.5,60.7,426.7,60.1z"/>
	<path class="st0" d="M16.9,60.1c5.9,0,11.4,0.1,16.9,0c2,0,3.1,0.6,4.4,2.3c2.2,2.8,5,5.2,7.3,7.9c0.8,0.9,1,2.3,1.7,3.9
		c-1.4,0.1-2.1,0.3-2.9,0.3c-5.5,0-11.1-0.3-16.6,0.1c-10,0.8-18.1-3.9-26.4-8.2C0.6,66,0.1,65,0.1,64.2C0,43.6,0,23,0,2.1
		c5.6,0,11,0,16.9,0C16.9,21.2,16.9,40.5,16.9,60.1z"/>
	<path class="st0" d="M264.3,16.2c3-4.9,2.7-9.5,0.4-14.2c16.5,0,32.7,0,49.6,0c-0.6,1.2-0.8,2.3-1.4,3c-2.7,3.4-5.4,6.7-8.3,9.9
		c-0.6,0.7-1.8,1.1-2.8,1.2c-2.7,0.2-5.4,0.1-8.4,0.1c0,4.1,0,7.9,0,11.7c0,6.1,0,12.3-0.1,18.4c0,0.9-0.3,2.2-0.9,2.6
		c-5,3.2-10,6.3-15.7,9.7c0-14.4,0-28.2,0-42.4C272.5,16.2,268.7,16.2,264.3,16.2z"/>
	<path class="st0" d="M245.9,24.3c5.6,0,11,0,16.6,0c0,14.3,0,28.4,0,42.8c-5.4,2.4-10.8,4.9-16.6,7.5
		C245.9,57.6,245.9,41.1,245.9,24.3z"/>
	<path class="st0" d="M254,17.5c-5.6,0-9-3.3-9.1-8.4c0-5.6,3.7-9.1,9.4-9.1c5.5,0,9.4,3.8,9.4,9C263.7,13.8,259.3,18.2,254,17.5z"
		/>
	<path class="st0" d="M367.8,33c-0.7-15-9.7-29.4-27.1-30.9c-11.5-1-21.8,1.4-30,10.1c-8.9,9.4-11.4,20.8-9.9,33.3
		c1.3,10,6,18,14.8,23.3c5.9,3.6,12.5,5,19.3,5.5c8.5,0.5,16.9-0.4,25.1-2.9c1.3-0.4,3.3-1.7,3.2-2.3c-0.4-3.8-1.3-7.6-2.1-11.6
		c-7.9,2.4-15.6,2.9-23.4,2.5c-5.2-0.3-9.8-2.1-13.8-5.4c-3-2.5-4.3-5.9-4.7-10.3c16.2,0,32.1,0,48,0c0.1-0.8,0.3-1.3,0.3-1.8
		C367.8,39.2,368,36.1,367.8,33z M349,30.9c-9.9,0-19.6,0-29.3,0c-0.3-9.2,6.9-16.3,16.1-16.4C345,14.4,349.7,22.9,349,30.9z"/>
	<path class="st0" d="M105.2,29.3c-1.7-9.2-6-16.7-13.7-22.3C83.1,1,73.8-0.2,63.7,1.2c-12.1,1.6-20.6,8.4-26,18.8
		c-5,9.5-5.3,19.7-2.7,30c1.8,7.2,5.5,13.1,11.2,17.9c5.4,4.5,11.6,6.6,18.5,7.4c9.3,1,18-0.5,25.7-5.7
		c11.3-7.6,15.4-18.9,15.6-32.1C105.8,34.7,105.7,32,105.2,29.3z M87.9,37.4c0.1,6.9-1.1,12.6-4.6,17.6c-7,10.1-21.4,9.6-27.8-0.8
		c-6.3-10.3-6-25.4,1.7-34.6c7-8.3,19.1-7.3,25.2,0.4C86.6,25.3,88.1,31.5,87.9,37.4z"/>
</g>
</svg>
