<?xml version="1.0" encoding="utf-8"?>
<!-- Generator: Adobe Illustrator 26.0.3, SVG Export Plug-In . SVG Version: 6.00 Build 0)  -->
<svg version="1.1" id="Capa_1" xmlns="http://www.w3.org/2000/svg" xmlns:xlink="http://www.w3.org/1999/xlink" x="0px" y="0px"
	 viewBox="0 0 156.1 140" style="enable-background:new 0 0 156.1 140;" xml:space="preserve">
<style type="text/css">
	.st0{fill-rule:evenodd;clip-rule:evenodd;fill:#999999;}
	.st1{fill-rule:evenodd;clip-rule:evenodd;fill:#FFFFFF;}
	.st2{fill-rule:evenodd;clip-rule:evenodd;fill:#666666;}
</style>
<path class="st0" d="M42.1,58.7c0.6,3.8-5.1,9.6-11.1,10.8c-5.7,1.1-10.5-1.3-11.1-5.1c-0.6-4.6,2-8.2,9.6-9.4
	C35.6,54.1,41.3,54.7,42.1,58.7z"/>
<path class="st0" d="M12.5,89c-8,2.3-11.6-1.2-12.4-4.4c-0.7-4.3,2.8-8,8.4-9.3c5.7-1.3,15,0,14.7,5.3C22.5,84.8,19.5,87.1,12.5,89z
	"/>
<path class="st0" d="M6.5,69c2.5,3.7,6.6,6.1,9.5,3.1c2.8-3,3.3-13.6,0.8-17.3S10,51,6.1,55.3C2.1,59.6,4,65.4,6.5,69z"/>
<path class="st0" d="M36.5,74.3c-2.7-3.4-6.9-5.3-9.5-2c-2.7,3.3-2.6,14.1,0,17.6c2.7,3.4,6.8,2.8,10.5-2
	C41.2,83,39.2,77.8,36.5,74.3z"/>
<path class="st1" d="M21.8,81.2c-1.6,0-3.2-0.5-4.7-1.3c-3.9-2.4-5.1-6.6-3.2-10.8c1.7-3.9,5-6.2,8.3-6.2c1.2,0,2.4,0.3,3.4,0.9
	c3.7,2,5,6.9,3.3,12.4C27.7,79.4,25.1,81.2,21.8,81.2L21.8,81.2z M22.1,63.6L22.1,63.6c-3.2,0-6.1,2.3-7.8,5.9
	c-1.8,3.9-0.6,7.8,3,10c1.4,0.8,2.9,1.2,4.4,1.2c3.1,0,5.4-1.7,6.6-4.6c1.7-5.2,0.5-9.8-3-11.7C24.3,63.8,23.2,63.6,22.1,63.6z"/>
<path class="st1" d="M21.1,84.6c-3.7,0-7.4-1.6-9.5-4l0,0c-2.8-3.8-4.7-9.7,1.3-16.7c2.4-2.6,6.1-4.3,9.5-4.3c1.9,0,3.5,0.5,5,1.4
	c4.9,3.5,6.9,9.5,5.3,14.9C30.7,81.5,26.5,84.6,21.1,84.6L21.1,84.6z M12.4,80L12.4,80c1.9,2.3,5.3,3.7,8.7,3.7c5,0,9-2.9,10.8-8.1
	c1.6-5.1-0.3-10.6-4.9-13.9c-1.3-0.9-2.8-1.3-4.6-1.3c-3.1,0-6.5,1.6-8.8,3.9C9.2,69.6,8.8,75,12.4,80z"/>
<path class="st2" d="M125.9,76.7c0.8-0.9,12.2-11.5,12.2-11.5h-12.7v-3.1h18.7c0,1.4,0.1,2.4-0.2,3.1c0,0-0.2,0.6-1.2,1.3
	c-1.1,1.1-11.9,11.2-11.9,11.2h13.6v2.8c0,0-17.9,0-19.6,0C124.7,78.2,124.9,77.8,125.9,76.7z"/>
<path class="st2" d="M72.6,76.7c0.8-0.9,12.2-11.5,12.2-11.5H72.1v-3.1h18.7c0,1.4,0.1,2.4-0.2,3.1c0,0-0.2,0.6-1.2,1.3
	c-1.1,1.1-11.9,11.2-11.9,11.2h13.6v2.8c0,0-17.9,0-19.6,0C71.4,78.2,71.5,77.8,72.6,76.7z"/>
<rect x="117.5" y="62.1" class="st2" width="4.9" height="18.4"/>
<path class="st2" d="M64.8,62.1H52.6c-2.4,0-4.3,1.1-4.3,3.9v9.8c0,2.8,0.7,4.6,4.5,4.6h16.2v-3.1H55.8c-2.4,0-2.7-0.8-2.7-1.7v-2.8
	h16.1c0-2.7,0-6.9,0-6.9C69.2,63.5,68.1,62.1,64.8,62.1L64.8,62.1z M64.7,69.9L64.7,69.9H53.2v-3.4c0-0.7,0.5-1.3,1.6-1.3H63
	c0.9,0,1.7,0.1,1.7,1.3V69.9z"/>
<path class="st2" d="M106.3,79.4l9.7-17.3h-4.9l-8.3,14.5l-5.2-14.5h-4.9l6.6,17.3c0.2,0.3,0.8,1,1.8,1h3.4
	C105.6,80.4,106.1,79.8,106.3,79.4z"/>
<path class="st2" d="M149.8,63.1h-1.3v3.5h-1.2v-3.5h-1.3v-0.9h3.7L149.8,63.1L149.8,63.1z M156.1,66.6L156.1,66.6h-1.2v-3.5h-0.2
	l-1.1,2.4h-0.9l-1.1-2.4h-0.2v3.5h-1.1v-4.4h1.9l0.9,2.2l0.9-2.2h1.9L156.1,66.6L156.1,66.6z"/>
</svg>
