<?xml version="1.0" encoding="utf-8"?>
<!-- Generator: Adobe Illustrator 26.0.3, SVG Export Plug-In . SVG Version: 6.00 Build 0)  -->
<svg version="1.1" id="Capa_1" xmlns="http://www.w3.org/2000/svg" xmlns:xlink="http://www.w3.org/1999/xlink" x="0px" y="0px"
	 viewBox="0 0 140 140" style="enable-background:new 0 0 140 140;" xml:space="preserve">
<style type="text/css">
	.st0{fill:#666666;}
	.st1{fill:#999999;}
</style>
<g>
	<path class="st0" d="M98.6,57.6c0,1.4,0,2.7,0,4.1c0,0.3-0.2,0.3-0.4,0.3c-1,0-2.1,0-3.1,0c-0.3,0-0.4,0.1-0.4,0.4
		c0,4.1,0,8.3,0,12.4c0,0.1,0,0.2,0,0.3c0.1,1.3,0.1,1.3,1.3,1.6c0.8,0.1,1.6,0.1,2.4,0c0,0,0.1,0.1,0.1,0.1c0,1.5,0,3,0,4.5
		c-0.7,0.1-1.4,0-2,0.1c0,0,0.1,0,0.2,0c-1.9,0.2-3.7,0.2-5.5-0.4c-1.7-0.6-2.6-1.7-2.7-3.5c0-5,0-10,0-15c0-0.2,0.1-0.4,0-0.5
		c-0.9,0-1.8,0-2.7,0c-0.2,0-0.4,0-0.5,0c-0.1-0.1-0.1-0.3-0.1-0.5c0-1.1,0-2.3,0-3.4c0-0.4,0.1-0.5,0.5-0.5c0.9,0,1.7,0,2.6,0
		c0.1,0,0.2-0.1,0.2-0.2c0-1.9,0-3.9,0-5.8c0-0.7,0-0.7,0.7-0.7c1.6,0,3.3,0,4.9,0c0.2,0,0.4,0,0.6,0.1c0,2.2,0,4.4,0,6.6
		c0.2,0.1,0.3,0.1,0.5,0.1C96.4,57.6,97.5,57.5,98.6,57.6z"/>
	<path class="st0" d="M132.8,48.9c0.1,0.1,0.1,0.3,0.1,0.5c0,10.4,0,20.9,0,31.3c0,0.5-0.1,0.6-0.6,0.6c-1.8,0-3.5,0-5.3,0
		c-0.4,0-0.5-0.1-0.5-0.5c0-10.5,0-20.9,0-31.4c0-0.1,0-0.3,0-0.4c0.2-0.1,0.4-0.1,0.5-0.1C129,48.9,130.9,49,132.8,48.9z"/>
	<path class="st0" d="M82.5,48.9c0.1,0.1,0.1,0.3,0.1,0.5c0,10.4,0,20.9,0,31.3c0,0.5-0.1,0.6-0.6,0.6c-1.7,0-3.5,0-5.2,0
		c-0.3,0-0.5,0-0.5-0.4c0-10.6,0-21.1,0-31.7c0-0.1,0-0.1,0-0.2c0.2-0.1,0.4,0,0.5,0C78.7,48.9,80.6,49,82.5,48.9z"/>
	<path class="st0" d="M108.8,91.5c-0.1-0.7,0-1.5-0.1-2.2c0-0.2,0-0.4,0-0.6c0-0.5-0.2-0.7-0.7-0.7c-0.5,0-0.7,0.2-0.7,0.7
		c0,0.8,0,1.6,0,2.5c0,0.1,0,0.2,0,0.3c-0.4,0.1-0.8,0-1.2,0.1c-0.1-0.8,0-1.7-0.1-2.5c0-0.6-0.1-1.3,0.1-1.9c0.4,0,0.7,0,1.1,0
		c0.1,0.1,0,0.3,0.1,0.4c0.3-0.4,0.7-0.6,1.2-0.6c0.5,0,0.9,0.2,1.2,0.7c0.3-0.5,0.7-0.7,1.3-0.7c0.9,0,1.5,0.5,1.5,1.4
		c0,1,0,2.1,0,3.1c-0.4,0.1-0.8,0.1-1.2,0c0-0.9,0-1.8,0-2.7c0-0.2,0.1-0.3-0.1-0.5c-0.5-0.6-1-0.5-1.4,0.2c-0.1,0.8,0,1.7,0,2.5
		c0,0.4-0.1,0.6-0.5,0.5C109.2,91.5,109,91.5,108.8,91.5z"/>
	<path class="st0" d="M46.4,87.1c-0.3-0.7-1.2-1-1.9-0.6c-0.3,0.1-0.4,0.3-0.4,0.6c0,0.3,0.2,0.4,0.5,0.5c0.6,0.2,1.2,0.3,1.8,0.5
		c1.1,0.3,1.5,0.8,1.5,1.7c0,0.9-0.5,1.6-1.5,1.8c-0.8,0.2-1.5,0.2-2.3-0.1c-0.7-0.2-1.2-0.7-1.3-1.5c-0.1-0.3,0-0.5,0.3-0.4
		c0.2,0,0.3,0,0.5,0c0.3,0,0.5,0,0.5,0.3c0,0.3,0.2,0.4,0.5,0.5c0.5,0.2,1,0.2,1.5,0c0.3-0.1,0.5-0.3,0.5-0.6c0-0.3-0.2-0.5-0.5-0.6
		c-0.7-0.2-1.4-0.3-2.1-0.6c-1.2-0.4-1.6-1.9-0.7-2.8c0.3-0.4,0.8-0.6,1.3-0.6c0.4,0,0.8,0,1.2,0c1,0.2,1.6,0.7,1.8,1.5
		c0.1,0.2,0.1,0.4-0.2,0.4C47.1,87.2,46.7,87.3,46.4,87.1z"/>
	<path class="st0" d="M61.4,91c-0.4,0.3-0.8,0.6-1.3,0.6c-1,0-1.4-0.4-1.6-1.4c0-0.9,0-1.9,0-2.8c0-0.3,0.1-0.4,0.4-0.4
		c0.2,0,0.5,0,0.7,0c0.2,0.4,0.1,0.8,0.1,1.2c0,0.5,0,1,0,1.6c0,0.4,0.1,0.7,0.6,0.8c0.4,0.1,0.8-0.2,0.9-0.6c0.1-0.3,0-0.5,0.1-0.8
		c0-0.7-0.1-1.5,0.1-2.2c0.4,0.1,0.8-0.1,1.1,0.1c0,1.3,0,2.6,0,3.9c0,0.3-0.1,0.4-0.4,0.4C61.8,91.5,61.4,91.6,61.4,91z"/>
	<path class="st0" d="M127.9,88.6c-0.4,0.1-0.7,0-0.8-0.4c-0.2-0.5-1.1-0.5-1.3,0.1c-0.3,0.6-0.3,1.3,0,1.9c0.1,0.3,0.4,0.4,0.7,0.4
		c0.3,0,0.6-0.1,0.6-0.4c0.1-0.5,0.4-0.4,0.7-0.4c0.7,0,0.8,0.1,0.4,0.7c-0.4,0.8-1.1,1.2-2.1,1.1c-1-0.1-1.6-0.6-1.8-1.5
		c-0.2-0.6-0.1-1.2,0-1.8c0.4-1.4,2.3-2,3.5-1.1c0.4,0.3,0.6,0.7,0.6,1.1C128.4,88.9,128,88.5,127.9,88.6z"/>
	<path class="st0" d="M90.3,87.5c0.5-0.4,1-0.7,1.7-0.6c0.7,0.1,1.1,0.5,1.3,1.2c0,1,0,2,0,3c0,0.3-0.1,0.4-0.4,0.4
		c-0.2,0-0.5,0-0.7,0c-0.1-0.5,0-1-0.1-1.4c0-0.5,0-0.9,0-1.4c0-0.4-0.2-0.7-0.6-0.7c-0.4-0.1-0.7,0.1-0.9,0.4
		c-0.1,0.3-0.1,0.5-0.1,0.8c0,0.8,0.1,1.6-0.1,2.3c0,0-0.1-0.1-0.1-0.2c0-0.8,0-1.6,0-2.4c0,0.7,0,1.3,0,2c0,0.2,0.1,0.4-0.1,0.6
		c-1,0-1,0-1-1c0-1.1,0-2.2,0-3.3c0.3-0.2,0.6-0.1,0.9-0.1C90.4,87.1,90.2,87.4,90.3,87.5z"/>
	<path class="st0" d="M88.1,85.5c0,2,0,3.9,0,5.9c0,0-0.1,0-0.1,0c-1.1,0.1-1.1,0.1-1.1-1c0-1.5,0-3,0-4.5c0-0.4,0.1-0.5,0.5-0.5
		C87.6,85.5,87.8,85.4,88.1,85.5z"/>
	<path class="st0" d="M99.1,91.4c0-2,0-3.9,0-5.9c0.4-0.1,0.8-0.1,1.2,0c0,2,0,3.9,0,5.9C99.9,91.5,99.5,91.5,99.1,91.4z"/>
	<path class="st0" d="M63.7,91.4c0-1.4,0-2.9,0-4.3c0.4-0.1,0.7-0.1,1.1,0c0,0.2,0,0.3,0.1,0.5c0.4-0.5,0.8-0.8,1.4-0.7
		c0.1,0.4,0.1,0.8,0,1.2c-1.1,0-1.3,0.2-1.3,1.3c0,0.7,0,1.4,0,2C64.5,91.5,64.1,91.5,63.7,91.4z"/>
	<path class="st0" d="M120,87.6c0.3-0.3,0.6-0.7,1.1-0.7c0.3,0,0.5,0,0.4,0.4c0,0.1,0,0.2,0,0.2c0,0.4,0,0.7-0.5,0.6
		c-0.5,0-0.8,0.3-0.8,0.9c0,0.7,0,1.3,0,2c0,0.2,0.1,0.3-0.1,0.5c-0.4-0.1-0.8,0.1-1.1-0.1c0-1.3,0-2.6,0-4c0-0.3,0.1-0.4,0.4-0.4
		c0.1,0,0,0,0,0C119.9,87.1,119.9,87.1,120,87.6z"/>
	<path class="st0" d="M123.3,87c0.1,0.8,0,1.7,0.1,2.5c0,0.6,0.1,1.3-0.1,1.9c-0.1,0,0,0,0,0c-0.3,0-0.8,0.1-1-0.1
		c-0.2-0.2-0.1-0.7-0.1-1c0-0.9,0-1.8,0-2.7c0-0.6-0.1-0.6,0.6-0.6C123,87.1,123.2,87.1,123.3,87z"/>
	<path class="st0" d="M68.2,87.1c0,1.4,0,2.9,0,4.3c-0.4,0.1-0.8,0.1-1.2,0c0-1.4,0-2.9,0-4.3C67.4,87,67.8,87,68.2,87.1z"/>
	<path class="st0" d="M88.6,62.1c0.2,0,0.1,0.2,0.1,0.3c0,5,0,9.9,0,14.9c0,0.1,0,0.2,0,0.3c0-0.2-0.1-0.4-0.1-0.6
		C88.6,72,88.6,67,88.6,62.1z"/>
	<path class="st0" d="M104.7,85.2c-0.7,0.5-1,1.5-2.1,1.2C103,85.2,103.3,85,104.7,85.2z"/>
	<path class="st0" d="M67.6,86.5c-0.4,0.1-0.6,0-0.6-0.6c0-0.5,0.1-0.6,0.6-0.6c0.5,0,0.7,0.1,0.6,0.6
		C68.2,86.5,68.2,86.5,67.6,86.5z"/>
	<path class="st0" d="M122.2,85.4c0.3-0.2,0.7,0,1-0.1c0.2,0,0.2,0.1,0.2,0.2c0.1,0.8,0,0.9-0.8,0.9c-0.1,0-0.3,0-0.4,0
		C122.1,86.1,122.3,85.8,122.2,85.4z"/>
	<path class="st0" d="M88.1,85.5c-1.2,0-1.2,0-1.2,1.2c0,1.4,0,2.8,0,4.2c0,0.4,0.1,0.5,0.5,0.5c0.2,0,0.5,0,0.7,0
		c-0.4,0.2-0.8,0.1-1.2,0.1c-0.2,0-0.1-0.2-0.1-0.3c0-1.8,0-3.7,0-5.5c0-0.2,0.1-0.3,0.3-0.3C87.4,85.5,87.8,85.3,88.1,85.5z"/>
	<path class="st0" d="M85.2,62c0-1.3,0-2.7,0-4c0-0.3,0.1-0.4,0.4-0.4c0.9,0,1.9,0,2.8,0c-0.7,0.2-1.3,0.1-2,0.1
		c-1.2,0-1.2,0-1.2,1.2c0,1.1,0,2.1,0,3.2C85.3,62,85.2,62,85.2,62z"/>
	<path class="st0" d="M123.3,87c-0.1,0-0.2,0.1-0.2,0.1c-0.8,0-0.8,0-0.8,0.9c0,1,0,1.9,0,2.9c0,0.4,0.1,0.6,0.5,0.5
		c0.2,0,0.4-0.1,0.6,0.1c-1.2,0.1-1.2,0.1-1.2-1c0-1,0-2,0-3c0-0.4,0.1-0.5,0.5-0.5C122.9,87,123.1,87,123.3,87z"/>
	<path class="st0" d="M123.8,74.3c-2.1,0-4.3,0-6.4,0c0.1-0.2,0.2-0.1,0.3-0.1c1.9,0,3.9,0,5.8,0C123.6,74.2,123.8,74.2,123.8,74.3z
		"/>
	<path class="st0" d="M132.8,48.9c-0.2,0.1-0.3,0.1-0.5,0.1c-1.9,0-3.8,0-5.7,0c0-0.2,0.2-0.1,0.3-0.1c1.9,0,3.8,0,5.8,0
		C132.6,48.9,132.7,48.9,132.8,48.9z"/>
	<path class="st0" d="M120,87.6c-0.2-0.1,0-0.5-0.4-0.5c-0.6,0-0.6,0-0.6,0.6c0,1.2,0,2.5,0,3.7c0,0,0,0,0,0.1c0,0,0,0,0,0
		c-0.2-0.1-0.1-0.2-0.1-0.3c0-1.2,0-2.5,0-3.7c0-0.4,0.1-0.5,0.4-0.4c0,0,0.1,0,0.1,0C119.9,86.9,120.1,87.1,120,87.6z"/>
	<path class="st0" d="M82.5,48.9C82.3,49,82.1,49,81.9,49c-1.9,0-3.8,0-5.7,0c0-0.2,0.2-0.1,0.3-0.1c1.9,0,3.8,0,5.7,0
		C82.3,48.9,82.4,48.9,82.5,48.9z"/>
	<path class="st0" d="M61.4,91c0.2,0.5,0.5,0.4,0.9,0.4c0.2,0,0.2-0.2,0.2-0.4c0-1.3,0-2.6,0-3.9c0,0,0,0,0-0.1c0,0,0,0,0,0
		c0.2,0.1,0.1,0.3,0.1,0.4c0,1.2,0,2.4,0,3.7c0,0.4-0.1,0.5-0.5,0.5c-0.1,0-0.2,0-0.3,0C61.5,91.6,61.4,91.4,61.4,91z"/>
	<path class="st0" d="M90.3,91.4C90.3,91.5,90.3,91.5,90.3,91.4c-1.1,0.2-1.1,0.2-1.1-0.9c0-1.1,0-2.3,0-3.4c0,0,0,0,0.1,0
		c0,1.2,0,2.5,0,3.7c0,0.5,0.1,0.7,0.6,0.6C90,91.4,90.1,91.4,90.3,91.4C90.3,91.4,90.3,91.4,90.3,91.4z"/>
	<path class="st0" d="M92.1,91.5c0.1,0,0.2-0.1,0.3-0.1c0.8,0,0.8,0,0.8-0.9c0-0.8-0.1-1.7,0-2.5c0.1,1.1,0,2.1,0,3.2
		c0,0.2-0.1,0.3-0.3,0.2C92.7,91.5,92.4,91.5,92.1,91.5z"/>
	<path class="st0" d="M59.7,87c-0.1,0.1-0.2,0.1-0.3,0.1c-0.8,0-0.7,0-0.8,0.8c0,0.8,0.1,1.6-0.1,2.3c-0.1-1,0-2,0-3
		c0-0.2,0.1-0.3,0.3-0.2C59.1,87,59.4,87,59.7,87z"/>
	<path class="st0" d="M108.8,91.5c0.1,0,0.2-0.1,0.3-0.1c0.8,0,0.8,0,0.8-0.8c0-0.6,0-1.1,0-1.7c0-0.2-0.1-0.3,0.1-0.5
		c0,0.9,0,1.8,0,2.6c0,0.3-0.1,0.5-0.4,0.4C109.3,91.5,109.1,91.5,108.8,91.5z"/>
	<path class="st0" d="M98.6,57.6c-1.1,0-2.3,0-3.4,0c-0.2,0-0.4,0.1-0.5-0.1c1.1,0,2.3,0,3.4,0C98.4,57.5,98.5,57.4,98.6,57.6z"/>
	<path class="st0" d="M73.5,85.5c-1.1,0-1.1,0-1.1,1.2c0,0.2,0,0.4,0,0.6c0,0.1-0.1,0.2-0.2,0.1c0.2-0.4,0.1-0.8,0.1-1.2
		c0-0.8,0-0.8,0.9-0.8C73.2,85.4,73.4,85.3,73.5,85.5z"/>
	<path class="st0" d="M114.8,87.3c0-0.4,0-0.8,0-1.2c0-0.2,0.1-0.5-0.1-0.5c-0.3-0.1-0.6-0.1-0.8,0c-0.1,0-0.1,0-0.2-0.1
		c0.3-0.3,0.7-0.1,1.1-0.1c0.1,0,0.1,0.1,0.1,0.2C114.8,86.2,114.8,86.7,114.8,87.3z"/>
	<path class="st0" d="M111.3,88.3c0.2,0.1,0.1,0.3,0.1,0.5c0,0.9,0,1.8,0,2.6c0,0,0,0,0,0.1c0,0,0,0,0,0c-0.2-0.2-0.1-0.4-0.1-0.6
		C111.3,90,111.3,89.2,111.3,88.3z"/>
	<path class="st0" d="M46.4,87.1c0.3,0,0.6,0,0.9,0c0.2,0,0.3-0.1,0.3-0.3c0.2,0.4,0.1,0.5-0.3,0.5C47,87.2,46.7,87.5,46.4,87.1z"/>
	<path class="st0" d="M96.8,81.5c-0.2,0-0.4,0-0.6,0c0,0,0-0.1,0-0.1c0.8,0,1.6,0,2.4,0C98,81.6,97.4,81.5,96.8,81.5z"/>
	<path class="st0" d="M98.6,76.8c-0.8,0.1-1.6,0.2-2.4,0C96.9,76.8,97.8,76.8,98.6,76.8z"/>
	<path class="st0" d="M124.1,68.2c0,0.2,0,0.3,0,0.5c0,0,0,0-0.1,0c0-0.6,0-1.2,0-1.9C124.2,67.3,124.1,67.8,124.1,68.2z"/>
	<path class="st0" d="M77.2,91.2c0.4,0.3,0.8,0.2,1.3,0.1c0.1,0.1,0.1,0.2,0,0.2c-0.4,0-0.8,0-1.2,0C77.1,91.5,77.2,91.3,77.2,91.2z
		"/>
	<path class="st0" d="M89.2,87.1C89.2,87.1,89.2,87.1,89.2,87.1c0.3-0.2,0.6-0.1,1-0.1c0.2,0,0.1,0.3,0.1,0.5
		C90.1,86.9,89.6,87.2,89.2,87.1z"/>
	<path class="st0" d="M69.2,88.5c0,0.5,0,1,0,1.6C69,89.6,69.1,89.1,69.2,88.5z"/>
	<path class="st0" d="M66.3,88.1c0-0.4,0-0.8,0-1.2C66.5,87.3,66.3,87.7,66.3,88.1C66.3,88.1,66.3,88.1,66.3,88.1
		C66.3,88.1,66.3,88.1,66.3,88.1z"/>
	<path class="st0" d="M64.8,87.1c-0.4,0-0.8,0-1.1,0C64.1,86.9,64.5,86.9,64.8,87.1z"/>
	<path class="st0" d="M68.2,87.1c-0.4,0-0.8,0-1.2,0C67.4,86.9,67.8,86.9,68.2,87.1z"/>
	<path class="st0" d="M111.5,91.5C111.5,91.5,111.5,91.5,111.5,91.5c0.4-0.1,0.8-0.1,1.1-0.1C112.2,91.6,111.8,91.5,111.5,91.5z"/>
	<path class="st0" d="M106.1,91.5c0.4-0.1,0.8,0,1.2-0.1C106.9,91.6,106.5,91.5,106.1,91.5z"/>
	<path class="st0" d="M99.1,91.4c0.4,0,0.8,0,1.2,0C99.9,91.6,99.5,91.6,99.1,91.4z"/>
	<path class="st0" d="M100.2,85.5c-0.4,0-0.8,0-1.2,0C99.5,85.3,99.9,85.3,100.2,85.5z"/>
	<path class="st0" d="M67.1,91.4c0.4,0,0.8,0,1.2,0C67.8,91.6,67.4,91.6,67.1,91.4z"/>
	<path class="st0" d="M63.7,91.4c0.4,0,0.8,0,1.2,0C64.5,91.6,64.1,91.6,63.7,91.4z"/>
	<path class="st0" d="M45.8,85.3c-0.4,0.1-0.8,0.1-1.2,0C45,85.2,45.4,85.2,45.8,85.3z"/>
	<path class="st0" d="M72.4,91.4c0.4,0,0.8,0,1.1,0C73.1,91.6,72.7,91.6,72.4,91.4z"/>
	<path class="st0" d="M107.2,87c-0.4,0.1-0.7,0.1-1.1,0C106.5,87,106.9,87,107.2,87z"/>
	<path class="st0" d="M118.9,91.5C118.9,91.5,118.9,91.5,118.9,91.5c0.4,0,0.7-0.1,1.1,0C119.6,91.6,119.3,91.5,118.9,91.5z"/>
	<path class="st0" d="M122.2,85.4c0.2,0.3,0,0.7,0.1,1C122.1,86.1,122.2,85.8,122.2,85.4z"/>
	<path class="st0" d="M113.7,91.5c0.4-0.2,0.7,0,1.1-0.1C114.4,91.6,114.1,91.5,113.7,91.5z"/>
	<path class="st0" d="M62.5,87C62.5,87.1,62.5,87.1,62.5,87c-0.4,0-0.7,0.2-1.1,0C61.8,87,62.2,87,62.5,87z"/>
	<path class="st0" d="M136.7,54c0.3-0.1,0.6-0.1,1,0C137.4,54,137,54,136.7,54z"/>
	<path class="st0" d="M137.7,48.9c-0.3,0.1-0.5,0.1-0.8,0C137.2,48.9,137.4,48.9,137.7,48.9z"/>
	<path class="st0" d="M115.5,57c-0.2,0-0.4,0.1-0.6,0c-0.1-0.1,0-0.1,0.1-0.1C115.2,56.9,115.4,56.9,115.5,57z"/>
	<path class="st0" d="M100.7,72.8c0.2,0.1,0.1,0.3,0.1,0.5C100.7,73.1,100.7,73,100.7,72.8z"/>
	<path class="st0" d="M115.8,81.7c0.1-0.2,0.3-0.1,0.5-0.1C116.1,81.7,116,81.7,115.8,81.7z"/>
	<path class="st0" d="M74.1,80.7c-3-8.6-6-17.1-9.1-25.7c-0.7-2-1.4-4-2.2-6C62.6,49,62.4,49,62.2,49c-2.2,0-4.3,0-6.5,0
		c-0.2,0-0.4,0.1-0.5-0.1h0C55,49,55,49.2,55,49.3c-3.5,9.9-7.1,19.8-10.6,29.6c-0.3,0.8-0.5,1.5-0.8,2.3c2.2,0,4.4,0,6.6,0
		c0.4,0,0.6-0.1,0.7-0.5c0.6-1.9,1.3-3.8,1.9-5.8c0.1-0.3,0.2-0.4,0.5-0.4c3.7,0,7.4,0,11.1,0c0.3,0,0.4,0.1,0.5,0.4
		c0.6,2,1.3,3.9,1.9,5.9c0.1,0.3,0.2,0.4,0.6,0.4c2.1,0,4.3,0,6.4,0C74.2,81.3,74.2,81.3,74.1,80.7z M62.8,69c-2.6,0-5.1,0-7.7,0
		c-0.3,0-0.4-0.1-0.3-0.4c1.3-4,2.7-8.1,4.1-12.3c1.4,4.3,2.7,8.4,4,12.6C62.9,69,62.8,69,62.8,69z"/>
	<path class="st0" d="M124.1,68.2c-0.1,0.1,0,0.2-0.1,0.2c0-0.5,0-1,0-1.6c-0.2-2.1-0.9-4-2.1-5.7c-1.6-2.3-3.7-3.6-6.5-4.1
		c-0.2-0.1-0.4,0-0.5-0.1c-1.7-0.4-3.4-0.4-5.1-0.1c-3.5,0.6-6.2,2.3-7.9,5.4c-1,1.8-1.4,3.9-1.6,6c-0.1,1.5-0.1,3,0.2,4.5
		c0.1,0.2,0,0.4,0.1,0.5c0.3,1.7,0.8,3.3,2,4.5c3.5,3.9,8,4.9,13,3.9c0.1-0.2,0.3,0,0.5-0.1c0.1,0,0.2,0,0.2,0c2.8-0.8,5-2.5,6.5-5
		c0.4-0.7,0.8-1.5,0.8-2.3c-0.2-0.1-0.4,0-0.5,0c-1.8,0-3.6,0-5.3,0c-0.2,0-0.4,0-0.5,0c-0.9,1.6-2.3,2.5-4.1,2.6
		c-3,0.2-6.1-1-6.5-5.3c0-0.5,0.1-0.6,0.5-0.6c5.4,0,10.8,0,16.2,0c0.1,0,0.3,0,0.4,0c0.2,0,0.3-0.1,0.3-0.3
		C124.2,69.9,124.3,69.1,124.1,68.2z M117.7,66.9c-3.5,0-6.9,0-10.4,0c-0.1,0-0.3,0.1-0.3-0.2c0.4-1.9,1.1-3.5,2.9-4.4
		c2.5-1.1,5.6-0.3,7,1.8c0.4,0.6,0.6,1.3,0.8,2.1C117.7,66.4,117.7,66.7,117.7,66.9z"/>
	<path class="st0" d="M117.7,66.9c0-0.2,0-0.4,0-0.7C117.8,66.4,117.8,66.7,117.7,66.9z"/>
	<path class="st0" d="M57.5,87.5c0-0.2,0.2-0.6-0.3-0.5c-0.3,0.1-0.9-0.3-1,0.4c-0.7-0.9-2.4-0.7-2.9,0.5c-0.2,0.5-0.3,1.1-0.3,1.6
		c0,0.8,0.3,1.5,1.1,1.8c0.7,0.3,1.4,0.3,2-0.3c0.1,0.3,0,0.5,0,0.8c-0.1,0.6-1.1,0.9-1.5,0.5C54.4,92,54.2,92,53.9,92
		c-0.2,0-0.5-0.1-0.6,0.1c-0.1,0.3,0.1,0.6,0.3,0.8c0.2,0.2,0.5,0.4,0.8,0.4c0.6,0.1,1.1,0.1,1.7,0c0.8-0.2,1.3-0.6,1.4-1.5
		C57.5,90.4,57.5,88.9,57.5,87.5z M56.1,90c-0.2,0.3-0.4,0.5-0.8,0.5c-0.4,0-0.6-0.1-0.8-0.5c-0.3-0.6-0.3-1.2,0.1-1.8
		c0.2-0.3,0.5-0.4,0.9-0.3c0.5,0.1,0.8,0.5,0.8,1.3C56.3,89.5,56.3,89.8,56.1,90z"/>
	<path class="st0" d="M73.5,85.5c-0.3-0.1-0.6,0-0.9,0c-0.2,0-0.3,0.1-0.3,0.3c0,0.4,0,0.9,0,1.3c0,0.1,0.1,0.3-0.1,0.3
		c-0.1-0.2-0.2-0.3-0.4-0.3c-1.1-0.6-2.4,0.2-2.6,1.5c-0.1,0.5-0.1,1,0,1.6c0.3,1.5,1.8,2,3.1,1c0,0.1,0,0.2,0,0.3
		c0.4,0.1,0.8,0.1,1.1,0C73.5,89.5,73.5,87.5,73.5,85.5z M72.3,89.4c-0.1,0.9-0.5,1.3-1.2,1.2c-0.5-0.1-0.8-0.5-0.8-1.3
		c0-0.9,0.4-1.4,1-1.4C72,88,72.4,88.6,72.3,89.4z"/>
	<path class="st0" d="M117.9,88.4c-0.3-1.4-1.7-2-2.9-1.2c-0.1,0.1-0.2,0.2-0.3,0c0.1-0.3,0-0.6,0-0.9c0-1.1,0-1.1-1.1-0.9
		c0,0-0.1,0-0.1,0c0,1.9,0,3.9,0,5.8c0,0.1,0,0.1,0.1,0.2c0.4-0.1,0.7,0.1,1.1-0.1c0-0.1,0-0.2,0.1-0.4c0.6,0.7,1.2,0.7,1.9,0.5
		c0.7-0.2,1-0.8,1.2-1.5C117.9,89.5,117.9,89,117.9,88.4C117.9,88.4,117.9,88.4,117.9,88.4z M116.7,89.8c-0.1,0.5-0.4,0.8-0.9,0.8
		c-0.5,0-0.8-0.3-1-0.8c-0.1-0.4-0.1-0.7,0-1.1c0.1-0.6,0.4-0.8,1-0.8c0.5,0,0.8,0.3,0.9,0.9c0,0.2,0,0.3,0,0.5
		C116.8,89.5,116.8,89.7,116.7,89.8z"/>
	<path class="st0" d="M83.1,91.4c0.3,0,0.2-0.3,0.2-0.5c0-1.6,0-3.2,0-4.8c0-0.4-0.1-0.6-0.5-0.6c-0.2,0-0.4,0-0.6,0
		c0,0.6,0,1.2,0,1.9c-1.4-1.1-2.7-0.3-3,0.7c-0.2,0.6-0.3,1.1-0.1,1.7c0.1,0.8,0.5,1.4,1.2,1.7c0.7,0.3,1.4,0.1,1.9-0.4
		c0,0.1,0.1,0.3,0.1,0.4c0-0.1,0-0.2,0-0.5C82.5,91.6,82.8,91.4,83.1,91.4z M82.1,90.1c-0.2,0.4-0.5,0.6-0.9,0.6
		c-0.4,0-0.7-0.3-0.8-0.7c-0.1-0.4-0.2-0.9,0-1.3c0.1-0.4,0.4-0.7,0.9-0.7c0.5,0,0.8,0.3,0.9,0.7c0.1,0.2,0.1,0.4,0.1,0.6
		C82.2,89.6,82.2,89.8,82.1,90.1z"/>
	<path class="st0" d="M52.6,90.2c-0.4,0-0.9-0.2-1.3,0.2c-0.5,0.5-1.4,0.3-1.7-0.3c-0.1-0.3-0.1-0.5,0.3-0.5c0.9,0,1.8,0,2.7,0
		c-1,0-2,0-3,0c0,0,0-0.1,0-0.1c0.7,0,1.5,0,2.2,0c0.8,0,0.8,0,0.9-0.8c0,0,0,0,0,0c0,0,0,0,0,0c-0.1-0.8-0.5-1.4-1.3-1.6
		c-0.9-0.3-1.8-0.3-2.5,0.4c-0.8,0.8-0.8,1.9-0.5,2.9c0.3,1,1.1,1.3,2,1.3c0.9,0.1,1.8-0.4,2.1-1.1C52.7,90.4,52.8,90.2,52.6,90.2z
		 M49.8,88.2c0.4-0.5,1.4-0.4,1.6,0.2c0.1,0.2,0.2,0.4-0.2,0.4c-0.2,0-0.4,0-0.6,0c-0.2,0-0.4,0-0.5,0c-0.2,0-0.4,0.1-0.5-0.1
		C49.5,88.5,49.7,88.4,49.8,88.2z"/>
	<path class="st0" d="M98.3,91.4c-0.2-0.2-0.2-0.5-0.2-0.8c0-0.8,0-1.6,0-2.4c0-0.6-0.2-1-0.8-1.2c-0.6-0.2-1.2-0.2-1.7-0.1
		c-0.8,0.2-1.2,0.6-1.3,1.5c0.1,0,0.3,0,0.4,0c0.4,0,0.8,0.1,1-0.4c0.1-0.3,0.9-0.3,1.2-0.1c0.2,0.2,0.2,0.5-0.1,0.6
		c-0.2,0.1-0.4,0.1-0.6,0.1c-0.4,0.1-0.8,0.1-1.2,0.3c-0.6,0.3-0.9,0.8-0.8,1.5c0.1,0.6,0.4,0.9,1,1.1c0.7,0.2,1.3-0.1,1.8-0.6
		c0.1,0.1,0.1,0.2,0.1,0.3C97.4,91.4,97.9,91.4,98.3,91.4C98.3,91.4,98.3,91.4,98.3,91.4z M95.9,90.8c-0.3,0-0.5-0.1-0.6-0.4
		c-0.1-0.3,0.1-0.6,0.4-0.6c0.4-0.1,0.8-0.2,1.2-0.3C96.9,90.4,96.6,90.8,95.9,90.8z"/>
	<path class="st0" d="M105.4,91.4c-0.2-0.3-0.2-0.7-0.2-1c0-0.7,0-1.4,0-2.2c0-0.6-0.2-1-0.8-1.2c-0.6-0.2-1.3-0.3-2-0.1
		c-0.6,0.2-0.9,0.6-1,1.2c0,0.1-0.1,0.2,0,0.3c0.2,0.1,1.1,0,1.2-0.2c0.2-0.4,0.9-0.5,1.2-0.3c0.3,0.2,0.2,0.5-0.1,0.7
		c-0.2,0.1-0.4,0.1-0.6,0.1c-0.4,0.1-0.8,0.1-1.2,0.3c-0.6,0.3-0.8,0.8-0.7,1.5c0.1,0.5,0.4,0.9,1,1c0.7,0.2,1.3-0.1,1.8-0.5
		c0.1,0.1,0.1,0.2,0.1,0.3C104.5,91.4,104.9,91.4,105.4,91.4C105.4,91.4,105.4,91.4,105.4,91.4z M102.9,90.8c-0.3,0-0.5-0.1-0.6-0.4
		c-0.1-0.3,0.1-0.6,0.4-0.7c0.4-0.1,0.8-0.2,1.2-0.3C104,90.4,103.6,90.8,102.9,90.8z"/>
	<path class="st0" d="M133.1,91.3C133.1,91.3,133.1,91.3,133.1,91.3c-0.2-0.2-0.2-0.4-0.2-0.6c0-0.8,0-1.5,0-2.3
		c0-1-0.3-1.4-1.3-1.5c-0.5-0.1-1.1-0.1-1.6,0.1c-0.6,0.2-0.9,0.6-1,1.2c0,0.1-0.1,0.2,0,0.2c0.2,0.1,1.1,0,1.2-0.2
		c0.2-0.4,0.9-0.5,1.2-0.3c0.3,0.2,0.2,0.5,0,0.7c-0.1,0.1-0.2,0.1-0.3,0.1c-0.2,0.2-0.5,0.1-0.7,0.1c0,0,0,0,0,0c0,0,0,0,0,0
		c-0.2,0-0.4,0-0.6,0.1c-0.7,0.2-1.1,0.8-1,1.6c0.1,0.6,0.5,1.1,1.3,1.1c0.6,0.1,1.1-0.2,1.5-0.6c0.1,0.1,0.1,0.2,0.1,0.3
		C132.3,91.4,132.7,91.5,133.1,91.3z M130.7,90.8c-0.3,0-0.6-0.1-0.6-0.4c-0.1-0.3,0.1-0.6,0.4-0.6c0.4-0.1,0.8-0.2,1.2-0.3
		C131.8,90.3,131.5,90.8,130.7,90.8z"/>
	<g>
		<path class="st0" d="M78.3,90.6c0-0.8,0-1.6,0-2.4c0-0.6-0.3-1-0.8-1.2c-0.7-0.2-1.3-0.2-2,0c-0.6,0.2-0.9,0.6-1,1.2
			c0,0.1-0.1,0.3,0.1,0.3c0.3,0,0.6,0,0.9,0c0.2,0,0.2-0.3,0.3-0.4c0.3-0.3,0.7-0.2,1-0.2c0.2,0,0.3,0.1,0.3,0.4
			c0,0.4-0.3,0.4-0.5,0.5c-0.2,0.2-0.5,0.1-0.8,0.1c-1.1,0.1-1.7,0.7-1.5,1.7c0.1,0.9,0.9,1.3,1.9,1.1c0.3-0.1,0.5-0.2,0.7-0.4
			c0.1-0.1,0.2-0.2,0.3,0c0.1,0.1,0.1,0.3,0.3,0.2c0.3-0.1,0.7,0.2,1-0.1C78.3,91.1,78.3,90.9,78.3,90.6z M76.2,90.8
			c-0.3,0-0.6,0-0.7-0.4c-0.1-0.4,0.1-0.6,0.4-0.7c0.1,0,0.2-0.1,0.3-0.1c0,0,0,0,0,0c0.1-0.2,0.2-0.1,0.4,0c0.2,0,0.3-0.1,0.5-0.1
			C77.1,90.3,76.9,90.7,76.2,90.8z"/>
		<path class="st0" d="M75.8,88.9C75.8,88.9,75.8,88.9,75.8,88.9C75.8,88.9,75.8,88.9,75.8,88.9z"/>
	</g>
	<path class="st0" d="M90.3,91.4C90.3,91.4,90.3,91.4,90.3,91.4c-0.1-0.9-0.1-1.8-0.1-2.6c0,0,0.1,0,0.1,0
		C90.3,89.7,90.3,90.6,90.3,91.4z"/>
	<path class="st0" d="M135.1,51.1c0,0.2,0,0.5,0,0.7C134.9,51.6,135.1,51.3,135.1,51.1C135.1,51.1,135.1,51.1,135.1,51.1
		C135.1,51.1,135.1,51.1,135.1,51.1z"/>
	<path class="st0" d="M136.1,50.1c0.1,0.9,0.1,1.8,0,2.8C136.1,51.9,136.1,51,136.1,50.1z"/>
	<g>
		<path class="st0" d="M137.7,48.9c-0.3,0-0.5,0-0.8,0c-1.3,0.2-2.2,1.2-2.2,2.5c0,1.2,0.8,2.3,2.1,2.5c0.3,0,0.6,0,1,0
			c1.3-0.3,2.1-1.3,2.1-2.5C139.8,50.2,138.9,49.2,137.7,48.9z M137.8,53.5c-1,0.3-2.1-0.2-2.5-1.1c-0.1-0.2-0.1-0.3-0.2-0.5
			c-0.1-0.2-0.1-0.5,0-0.7c0.5-1.2,1.1-1.7,2.1-1.7c1.1,0,1.9,0.8,2.1,1.8C139.5,52.2,138.8,53.2,137.8,53.5z"/>
		<path class="st0" d="M137.9,50.1c-0.6-0.1-1.2-0.2-1.8,0c0,0.9,0,1.8,0,2.8c0.6,0.2,0.6,0.2,0.6-0.4c0-0.7,0-0.7,0.6-0.6
			c0.3,0,0.5,0.1,0.4,0.5c0,0.2,0,0.3,0,0.5c0,0.3,0.3,0.2,0.4,0.2c0.1,0,0.3,0,0.3-0.1c-0.2-0.4,0.1-0.8-0.2-1.1
			c-0.1-0.2-0.1-0.2,0-0.4C138.6,50.9,138.4,50.2,137.9,50.1z M137.4,51.3c-0.2,0-0.5,0-0.7,0c-0.1-0.2-0.1-0.4,0-0.7
			c0.2-0.1,0.5,0,0.7,0c0.2,0,0.4,0.1,0.4,0.4C137.8,51.2,137.6,51.3,137.4,51.3z"/>
	</g>
	<path class="st0" d="M136.7,50.6c0,0.2,0,0.4,0,0.7C136.5,51,136.6,50.8,136.7,50.6z"/>
	<path class="st1" d="M38.8,64.5c0-0.1,0-0.1,0-0.2c0-0.6,0-1.2,0-1.8v0c0-0.3,0-0.6,0-0.9c0-0.5,0-1-0.1-1.5c0,0,0,0,0,0
		c0-0.7,0-1.4-0.1-2.1c0-0.3,0-0.5-0.1-0.8c0-0.1,0-0.2,0-0.3c0-0.3-0.1-0.6-0.1-0.9c0,0,0-0.1,0-0.1c0-0.3-0.1-0.5-0.1-0.8
		c0-0.2,0-0.4-0.1-0.6c0,0,0,0,0,0l0,0c0-0.2,0-0.4-0.1-0.6l0,0c0,0,0,0,0,0c0-0.1,0-0.2,0-0.3c0-0.2-0.1-0.3-0.1-0.5
		c0-0.1,0-0.3-0.1-0.4c0-0.2,0-0.5-0.2-0.7c0,0,0,0,0,0c-0.2,0-0.3,0-0.5,0c0,0-0.1,0-0.1,0c0,0,0,0-0.1,0c-0.3-0.1-0.6-0.1-0.9,0
		c0,0,0,0,0,0c-0.9-0.1-1.8-0.2-2.7-0.3c0,0,0,0,0,0c-0.4-0.2-0.9-0.2-1.4-0.3c-0.1-0.1-0.3-0.1-0.4-0.1c-0.5-0.2-1.1-0.3-1.6-0.5
		c0,0,0,0,0,0c-0.6-0.3-1.3-0.5-1.9-0.7c-0.3-0.3-0.8-0.4-1.2-0.6c0-0.2-0.2-0.2-0.3-0.2c0,0,0,0,0,0c0,0,0,0,0,0
		c-0.3,0-0.4-0.3-0.7-0.2c-0.3-0.3-0.6-0.4-1-0.6c-0.5-0.3-0.9-0.5-1.4-0.8c-0.1-0.1-0.2-0.1-0.3-0.2c-0.1-0.1-0.2-0.1-0.3-0.2
		c-0.1-0.1-0.2-0.1-0.3-0.2c0,0,0,0,0,0c0,0,0,0,0,0c-0.1-0.1-0.2-0.1-0.3-0.2c0,0,0,0,0,0c-0.1,0-0.1-0.1-0.2-0.1
		c-0.2-0.1-0.3-0.2-0.5-0.4c0,0,0,0,0,0c-0.1,0-0.1-0.1-0.2-0.1c0,0-0.1-0.1-0.1-0.1c0-0.1-0.1-0.1-0.2-0.1c-0.1,0-0.1-0.1-0.2-0.1
		c0,0,0,0,0,0c0,0,0,0,0,0c-0.4-0.5-0.9-0.8-1.4-1.1c-0.1,0-0.2,0.1-0.2,0.2c0,0,0,0,0,0c-0.2,0.1-0.4,0.3-0.6,0.5c0,0,0,0,0,0
		c-0.1,0.1-0.1,0.1-0.2,0.2c0,0,0,0,0,0c-0.2,0.1-0.5,0.1-0.6,0.4v0c0,0,0,0,0,0c0,0-0.1,0-0.1,0c-1.4,1-2.8,1.9-4.3,2.6
		c-0.6,0.3-1.2,0.6-1.8,0.9c0,0,0,0,0,0c0,0,0,0,0,0c0,0,0,0,0,0c0,0,0,0,0,0c-0.1,0-0.2,0-0.3,0.1c0,0,0,0,0,0
		c-0.2,0.1-0.5,0.1-0.7,0.3c0,0,0,0,0,0c-0.4,0.1-0.8,0.3-1.3,0.4c0,0,0,0,0,0c-0.2,0.1-0.3,0.1-0.5,0.2c0,0,0,0,0,0
		c-0.6,0.2-1.1,0.3-1.7,0.5c0,0,0,0,0,0c0,0,0,0,0,0c-0.1,0-0.1,0.1-0.2,0.1c0,0-0.1,0-0.1,0v0c-0.2,0-0.3,0-0.5,0.1c0,0,0,0,0,0
		c-0.1,0-0.3,0-0.4,0.1c0,0,0,0,0,0c-1,0.1-2,0.3-3,0.4c0,0,0,0,0,0c-0.4,0-0.8,0-1.2,0c0,0,0,0,0,0l0,0c-0.2,0-0.4-0.1-0.6,0.1
		c0,0.1,0,0.2,0,0.3c0,0,0,0,0,0c0,0,0,0,0,0c0,0,0,0,0,0c-0.1,0.2-0.1,0.4-0.1,0.6c-0.1,0.2-0.1,0.4-0.1,0.6
		c-0.1,0.2-0.1,0.5-0.1,0.7c-0.1,0.2-0.1,0.4-0.1,0.6c0,0,0,0,0,0C1,55.1,1,55.4,1,55.7c0,0,0,0,0,0c-0.1,0.2-0.1,0.4-0.1,0.6
		c0,0,0,0,0,0c-0.2,0.4-0.1,0.9-0.1,1.4c0,0,0,0,0,0c0,0,0,0,0,0c0,0.1-0.1,0.1-0.1,0.2c-0.2,1.2-0.1,2.5-0.2,3.8c0,0.3,0,0.7,0,1
		c0,0.1,0,0.2,0,0.2c-0.1,0.6-0.1,1.2,0.1,1.7c0,0,0,0,0,0c0,0,0,0,0,0c0,0.4-0.1,0.7,0.1,1.1c0,0,0,0,0,0c0,0.5-0.1,1,0.1,1.5
		c0,0,0,0,0,0c0,0.7,0.1,1.4,0.2,2.1c0,0.5,0.1,1.1,0.3,1.6c0,0.6,0.2,1.3,0.4,1.9c0,0.3,0.1,0.6,0.2,0.9c0,0,0,0,0,0
		c0,0.3,0.1,0.5,0.2,0.8c0,0,0,0,0,0c0.1,0.5,0.2,0.9,0.4,1.4h0c0.1,0.6,0.3,1.2,0.6,1.8c0,0,0,0,0,0c0.4,1.2,0.9,2.4,1.5,3.5
		c0.3,0.7,0.6,1.3,1,1.9c0,0,0,0,0,0c0.1,0.4,0.3,0.7,0.6,1c0,0,0,0,0,0c0,0,0,0,0,0c0.1,0.3,0.3,0.5,0.5,0.8h0
		c0.2,0.4,0.4,0.7,0.7,1c0,0,0,0,0,0c0.1,0.1,0.1,0.3,0.3,0.4c0,0,0,0,0,0c0,0,0,0,0,0c0.1,0.2,0.3,0.4,0.4,0.6c0,0,0,0,0,0
		c0.2,0.3,0.5,0.6,0.8,0.9c0.2,0.2,0.4,0.5,0.6,0.7c0,0,0,0,0,0c0,0,0,0,0,0c0.2,0.3,0.4,0.5,0.7,0.7c0,0,0,0,0,0
		c0.2,0.3,0.4,0.6,0.8,0.7c0,0,0,0,0,0c0.6,0.8,1.4,1.3,2.2,1.9c0.7,0.5,1.4,1.1,2.2,1.4c0,0,0,0,0,0c0.3,0.3,0.6,0.4,1,0.6
		c0,0,0,0,0,0l0,0c0.2,0.2,0.4,0.3,0.7,0.4c0.2,0.1,0.3,0.2,0.5,0.2c0,0,0,0,0,0c0.2,0.2,0.5,0.3,0.8,0.4c0,0,0,0,0,0c0,0,0,0,0,0
		c0.5,0.2,1,0.6,1.6,0.6c0,0,0,0,0,0c0.2-0.1,0.4-0.2,0.6-0.3c0.1,0,0.1-0.1,0.2-0.1l0,0c0.1,0,0.1-0.1,0.2-0.1
		c0.2,0,0.3-0.1,0.4-0.2v0l0,0c0.3,0,0.5-0.2,0.7-0.3c0.1,0,0.1,0,0.2-0.1l0,0v0c0.2-0.1,0.4-0.2,0.6-0.3c0,0,0,0,0,0
		c0.4-0.2,0.8-0.4,1.2-0.7c0,0,0,0,0,0c0.6-0.2,1.1-0.6,1.6-1v0c0,0,0,0,0,0c0.6-0.3,1.1-0.7,1.6-1.2l0,0c0,0,0,0,0,0
		c1.2-0.7,2-1.7,2.9-2.8c0,0,0,0,0,0c0.3-0.2,0.5-0.4,0.7-0.6c0.8-1,1.6-1.9,2.2-3c0.4-0.7,0.9-1.3,1.2-2.1c0,0,0,0,0,0
		c0.4-0.3,0.5-0.8,0.7-1.2c0,0,0,0,0,0c0.2-0.4,0.4-0.7,0.5-1.1c0,0,0,0,0,0c0.5-0.8,0.8-1.8,1.1-2.7c0,0,0,0,0,0
		c0.3-0.9,0.7-1.7,0.8-2.6c0,0,0,0,0,0c0.3-0.6,0.4-1.2,0.5-1.8c0,0,0,0,0,0c0.1-0.4,0.2-0.7,0.3-1.1c0.1-0.3,0.2-0.6,0.2-1
		c0,0,0,0,0,0c0.1-0.6,0.2-1.1,0.3-1.7c0.1-0.5,0.2-1,0.2-1.6l0,0h0c0-0.2,0-0.4,0-0.6c0.1-0.4,0.1-0.9,0.1-1.4l0,0
		C38.9,65.4,38.8,65,38.8,64.5z M0.7,65.7c0,0,0-0.1,0-0.1C0.7,65.6,0.7,65.6,0.7,65.7C0.7,65.6,0.7,65.7,0.7,65.7z M1.8,52.5
		C1.8,52.5,1.8,52.5,1.8,52.5C1.8,52.5,1.8,52.5,1.8,52.5C1.8,52.5,1.8,52.5,1.8,52.5C1.8,52.5,1.8,52.5,1.8,52.5z M22.3,47.5
		C22.3,47.5,22.3,47.5,22.3,47.5C22.3,47.5,22.3,47.5,22.3,47.5C22.3,47.5,22.3,47.5,22.3,47.5L22.3,47.5
		C22.3,47.5,22.3,47.5,22.3,47.5C22.3,47.5,22.3,47.5,22.3,47.5z M21.2,47.9C21.2,47.9,21.2,47.9,21.2,47.9
		C21.2,47.9,21.2,47.9,21.2,47.9C21.2,47.9,21.2,47.9,21.2,47.9z M17.3,48.1C17.3,48.1,17.3,48.1,17.3,48.1
		C17.4,48.1,17.4,48.1,17.3,48.1C17.3,48.1,17.3,48.1,17.3,48.1C17.3,48.1,17.3,48.1,17.3,48.1C17.3,48.1,17.3,48.1,17.3,48.1z
		 M16.6,48.6C16.5,48.6,16.5,48.6,16.6,48.6C16.5,48.6,16.5,48.6,16.6,48.6C16.5,48.6,16.5,48.6,16.6,48.6z M11.5,51
		C11.5,51,11.5,51,11.5,51C11.5,51,11.5,51,11.5,51C11.5,51,11.5,51,11.5,51z M6.3,52.4C6.3,52.4,6.3,52.4,6.3,52.4L6.3,52.4
		C6.3,52.4,6.3,52.4,6.3,52.4C6.3,52.4,6.3,52.4,6.3,52.4C6.3,52.4,6.3,52.4,6.3,52.4z M2.1,58.5C2.1,58.5,2.1,58.5,2.1,58.5
		C2.1,58.5,2.1,58.5,2.1,58.5C2.1,58.5,2.1,58.5,2.1,58.5z M1.9,70.7C1.9,70.7,1.9,70.7,1.9,70.7C1.9,70.7,1.9,70.7,1.9,70.7
		C1.9,70.7,1.9,70.7,1.9,70.7C1.9,70.7,1.9,70.7,1.9,70.7C1.9,70.7,1.9,70.7,1.9,70.7z M2.9,74.4C2.9,74.4,2.9,74.4,2.9,74.4
		C2.9,74.4,2.9,74.4,2.9,74.4C2.9,74.4,2.9,74.4,2.9,74.4C2.9,74.4,2.9,74.4,2.9,74.4C2.9,74.4,2.9,74.4,2.9,74.4z M5.9,82.7
		C5.9,82.7,5.9,82.7,5.9,82.7C5.9,82.7,5.9,82.7,5.9,82.7C5.9,82.7,5.9,82.7,5.9,82.7C5.9,82.7,5.9,82.7,5.9,82.7
		C5.9,82.7,5.9,82.7,5.9,82.7C5.9,82.7,5.9,82.7,5.9,82.7z M10.5,89C10.5,89,10.5,89,10.5,89C10.5,89,10.5,89,10.5,89
		C10.5,89,10.5,89,10.5,89z M19.5,93.8C19.5,93.8,19.5,93.8,19.5,93.8C19.5,93.8,19.5,93.8,19.5,93.8C19.5,93.8,19.5,93.8,19.5,93.8
		C19.5,93.8,19.5,93.8,19.5,93.8C19.5,93.8,19.5,93.8,19.5,93.8z M19.7,93.4C19.7,93.4,19.7,93.4,19.7,93.4L19.7,93.4
		C19.7,93.4,19.7,93.4,19.7,93.4z M21.8,92.6C21.8,92.6,21.8,92.6,21.8,92.6C21.8,92.6,21.8,92.6,21.8,92.6
		C21.8,92.6,21.8,92.6,21.8,92.6z M22.2,92.4C22.2,92.4,22.2,92.4,22.2,92.4C22.2,92.4,22.2,92.4,22.2,92.4
		C22.2,92.4,22.2,92.4,22.2,92.4C22.2,92.4,22.2,92.4,22.2,92.4z M23.8,92.2C23.8,92.2,23.8,92.2,23.8,92.2
		C23.8,92.2,23.8,92.2,23.8,92.2C23.8,92.2,23.8,92.2,23.8,92.2z M32.7,83.1C32.7,83.1,32.7,83.1,32.7,83.1
		C32.7,83.1,32.7,83.1,32.7,83.1C32.7,83.1,32.7,83.1,32.7,83.1z M34.3,62.3c-0.4,0.7-0.9,1.4-1.3,2.1c-0.2,0.4-0.4,0.4-0.8,0.1
		c-2.9-2.1-6.2-3.1-9.7-3.6c-0.3,0-0.6,0-0.8-0.1c-1.4-0.1-2.8-0.1-4.3,0c-1.1,0.1-2.2,0.3-3.2,0.5c-0.2,0-0.3,0.1-0.5,0.1
		c-2.3,0.6-4.5,1.4-6.5,2.7c-0.6,0.4-0.6,0.4-0.2,1c0.4,0.5,0.7,1.1,1.1,1.6c0.2,0.3,0.4,0.4,0.8,0.2c1.7-1.1,3.5-1.8,5.5-2.4
		c1.2-0.3,2.5-0.5,3.7-0.6c2.5-0.2,4.9,0.1,7.3,0.8c1.7,0.5,3.3,1.2,4.8,2.2c0.6,0.4,0.6,0.5,0.2,1.1c-0.4,0.6-0.8,1.2-1.2,1.8
		c-0.3,0.4-0.4,0.5-0.9,0.2c-2-1.3-4.2-2-6.5-2.4c-0.3,0-0.6,0-0.9-0.1c-1.1-0.1-2.1-0.1-3.2,0c-2.1,0.2-4.1,0.7-6,1.7
		c-0.4,0.2-0.7,0.4-1.1,0.7c-0.2,0.2-0.3,0.4-0.1,0.6c0.4,0.6,0.9,1.3,1.4,1.9c0.2,0.3,0.4,0.2,0.6,0.1c1-0.5,2-1,3-1.3
		c1.9-0.6,3.8-0.7,5.7-0.6c0.2,0.1,0.4,0.1,0.6,0.1c1.7,0.3,3.3,0.9,4.7,1.9c0.5,0.3,0.5,0.4,0.2,0.9c-0.4,0.7-0.8,1.3-1.3,1.9
		c-0.3,0.5-0.4,0.5-0.9,0.2c-1.2-0.7-2.5-1.2-3.9-1.4c-2.2-0.3-4.3,0.2-6.2,1.3c-0.3,0.2-0.3,0.3-0.2,0.6c0.4,0.7,0.8,1.3,1.2,2
		c0.2,0.3,0.4,0.2,0.7,0.1c0.8-0.4,1.6-0.7,2.5-0.8c1.4-0.2,2.8,0,4,0.8c0.5,0.3,0.6,0.5,0.2,1c-0.4,0.6-0.9,1.2-1.2,1.9
		c-0.2,0.3-0.5,0.4-0.8,0.2c-0.9-0.4-1.9-0.3-2.8,0c-0.3,0.1-0.3,0.2-0.1,0.5c0.5,0.6,0.9,1.3,1.4,1.9c0.1,0.2,0.3,0.4,0.3,0.7
		c0,2.8,0,5.6,0,8.4c0,0.5-0.1,0.6-0.4,0.4c-0.1,0-0.2,0-0.3,0c0,0,0,0,0,0c0,0,0,0,0,0c0,0,0,0,0,0c-0.7-0.3-1.3-0.7-2-1
		c-0.2-0.1-0.3-0.2-0.5-0.2c-0.3-0.1-0.5-0.2-0.7-0.3c0,0,0,0,0,0l0,0c0,0,0,0,0,0c-0.1-0.1-0.2-0.1-0.3-0.2
		c-0.1-0.1-0.3-0.2-0.4-0.2c-0.1,0-0.2-0.1-0.2-0.1c-0.1-0.1-0.2-0.2-0.4-0.2c-0.1,0-0.1-0.1-0.2-0.1c-0.1-0.1-0.3-0.3-0.4-0.4
		c-0.2-0.2-0.5-0.3-0.7-0.5c-0.3-0.2-0.6-0.5-0.9-0.8c-0.7-0.6-1.4-1.2-2-2c-0.5-0.5-1.1-0.9-1.4-1.6c-0.2-0.3-0.4-0.5-0.6-0.8
		c-0.4-0.6-0.8-1.2-1.3-1.8c-0.1-0.4-0.5-0.8-0.6-1.2c0,0,0,0,0,0c0,0,0,0,0,0C6.2,81.5,6,81,5.8,80.6c-0.3-0.5-0.6-1-0.8-1.6
		c-0.2-0.5-0.4-1-0.6-1.5c-0.1-0.5-0.4-1-0.5-1.5c-0.1-0.4-0.2-0.7-0.4-1.1c0-0.2-0.1-0.4-0.2-0.6c0,0,0-0.1,0-0.1c0,0,0,0,0,0
		c0,0,0,0-0.1,0c0,0,0,0,0.1,0c0-0.5-0.2-1-0.3-1.5c-0.1-0.4-0.2-0.9-0.3-1.3c-0.1-0.6-0.1-1.3-0.4-1.8c0,0,0,0,0,0c0,0,0,0,0,0
		c0,0,0,0,0,0c-0.1-1.3-0.2-2.6-0.4-3.9c-0.1-0.7,0-1.5,0-2.2c0-0.6,0-1.2,0-1.9c0,0,0,0,0,0c0,0,0,0,0,0c0,0,0,0,0,0
		c-0.3-0.3-0.1-0.6,0-0.9c0-0.3,0.1-0.7,0.1-1c0-0.1,0-0.2,0-0.3c-0.1-0.4,0.2-0.8,0.1-1.2c0-0.1,0-0.2,0.1-0.3
		c0.1-0.2,0.1-0.5,0.1-0.7c0-0.3,0.1-0.6,0.1-0.9c0-0.3,0.1-0.6,0.1-0.9c0-0.2,0.1-0.4,0.1-0.6c-0.1-0.2,0-0.4,0-0.6
		c0-0.1,0-0.1,0-0.2c0.1-0.2,0-0.4,0.2-0.5c0.6-0.2,1.3,0,1.9-0.2c0.3-0.1,0.6-0.1,1-0.1c0.3,0,0.7-0.1,1-0.2c0.4,0,0.9-0.1,1.3-0.3
		c0.3-0.3,0.7-0.2,1.1-0.4c0.4-0.1,0.8-0.3,1.2-0.4c0.1,0,0.3-0.1,0.4-0.1c0.3-0.1,0.5-0.2,0.8-0.3c0.2-0.1,0.4-0.2,0.7-0.3
		c0,0,0.1,0,0.1-0.1c0.2-0.1,0.5-0.2,0.6-0.3c0.1,0,0.1-0.1,0.2-0.1c0.3-0.1,0.6-0.2,0.9-0.3c0.4-0.2,0.7-0.4,1.1-0.6
		c0.2-0.1,0.3-0.2,0.4-0.3c0.1-0.1,0.2-0.1,0.3-0.2c0.4-0.2,0.7-0.5,1.1-0.7c0.2-0.1,0.4-0.3,0.7-0.4c0.4-0.2,0.7-0.4,1-0.7
		c0.1-0.1,0.2-0.2,0.3-0.1c0.1-0.1,0.2-0.2,0.3-0.3c0.1-0.2,0.2-0.3,0.4-0.3l0,0c0.2,0.2,0.1,0.5,0.1,0.8c0,2.8,0,5.6,0,8.4
		c0,0.2,0,0.3,0,0.5c0,0.4,0.1,0.5,0.5,0.5c1.1,0.1,2.1,0.2,3.2,0.3c0.2,0,0.3,0.1,0.5,0.1c0.2,0.1,0.4,0.1,0.7,0.1
		c2.4,0.5,4.8,1.2,7,2.4c0.8,0.4,1.7,0.9,2.4,1.4C34.6,61.8,34.6,61.8,34.3,62.3z M34.6,53.4C34.6,53.4,34.6,53.4,34.6,53.4
		C34.6,53.4,34.6,53.4,34.6,53.4C34.6,53.4,34.6,53.4,34.6,53.4C34.6,53.4,34.7,53.4,34.6,53.4C34.7,53.4,34.6,53.4,34.6,53.4z
		 M34.8,80.5L34.8,80.5C34.8,80.5,34.8,80.5,34.8,80.5C34.8,80.5,34.8,80.5,34.8,80.5C34.8,80.5,34.8,80.5,34.8,80.5z M35.4,53.4
		C35.4,53.4,35.4,53.4,35.4,53.4C35.4,53.4,35.4,53.4,35.4,53.4C35.4,53.4,35.4,53.4,35.4,53.4z M36.4,75.6
		C36.4,75.6,36.4,75.6,36.4,75.6C36.4,75.6,36.4,75.6,36.4,75.6C36.4,75.6,36.4,75.6,36.4,75.6z M37,69.5C37,69.5,37,69.5,37,69.5
		C37,69.5,37,69.5,37,69.5C37,69.5,37,69.5,37,69.5C37,69.5,37,69.5,37,69.5C37,69.5,37,69.5,37,69.5z M37.1,57.5L37.1,57.5
		C37.1,57.5,37.1,57.5,37.1,57.5C37.1,57.5,37.1,57.5,37.1,57.5C37.1,57.5,37.1,57.5,37.1,57.5z M37.2,69.4
		C37.2,69.4,37.2,69.4,37.2,69.4C37.2,69.4,37.2,69.4,37.2,69.4C37.2,69.4,37.2,69.4,37.2,69.4z M37.6,60.2
		C37.6,60.2,37.6,60.2,37.6,60.2C37.6,60.2,37.6,60.2,37.6,60.2C37.6,60.2,37.6,60.2,37.6,60.2C37.6,60.2,37.6,60.2,37.6,60.2
		C37.6,60.2,37.6,60.2,37.6,60.2z M37.8,72.3C37.8,72.3,37.8,72.3,37.8,72.3C37.8,72.3,37.8,72.3,37.8,72.3z M38.2,68.7
		C38.3,68.6,38.3,68.6,38.2,68.7C38.3,68.6,38.3,68.6,38.2,68.7C38.3,68.6,38.3,68.6,38.2,68.7C38.3,68.6,38.3,68.6,38.2,68.7
		C38.3,68.6,38.3,68.7,38.2,68.7C38.3,68.7,38.3,68.7,38.2,68.7z M38.5,67.5C38.5,67.5,38.5,67.5,38.5,67.5
		C38.5,67.5,38.5,67.5,38.5,67.5C38.5,67.5,38.5,67.5,38.5,67.5C38.5,67.5,38.5,67.5,38.5,67.5C38.5,67.5,38.5,67.5,38.5,67.5z"/>
</g>
</svg>
