<?xml version="1.0" encoding="utf-8"?>
<!-- Generator: Adobe Illustrator 26.0.3, SVG Export Plug-In . SVG Version: 6.00 Build 0)  -->
<svg version="1.1" id="Capa_1" xmlns="http://www.w3.org/2000/svg" xmlns:xlink="http://www.w3.org/1999/xlink" x="0px" y="0px"
	 viewBox="0 0 232.4 140" style="enable-background:new 0 0 232.4 140;" xml:space="preserve">
<style type="text/css">
	.st0{fill:#666666;}
	.st1{fill:#999999;}
</style>
<g>
	<path class="st0" d="M206.2,59.8c-3.2,0-3.7,2.7-3.7,4.8c0,2.2,0.7,4.8,3.7,4.8c3.2,0,3.7-2.7,3.7-4.8
		C209.9,62.4,209.2,59.8,206.2,59.8L206.2,59.8z M206.2,73.9c-4.1,0-8.9-2.5-8.9-9.1c0-6.8,4.8-9.1,8.9-9.1s8.9,2.5,8.9,9.1
		S210.3,73.9,206.2,73.9L206.2,73.9z"/>
	<polygon class="st1" points="19.3,73.4 13.9,73.4 13.9,63.2 5.6,63.2 5.6,73.4 0.4,73.4 0.4,50 5.6,50 5.6,58.7 13.9,58.7 13.9,50 
		19.3,50 	"/>
	<polygon class="st1" points="43.7,73.4 38.7,73.4 38.7,50 43.7,50 	"/>
	<polygon class="st1" points="51,73.4 46.1,73.4 46.1,50 51,50 	"/>
	<path class="st1" d="M75.1,73.4h-5V56h4.8v2.2c0.8-1.3,2-2.7,4.4-2.7c0.4,0,0.6,0,0.8,0.1h0.2v0.2v4.8H80c-0.2,0-0.5,0-0.7,0
		c-0.1,0-0.4,0-0.5,0c-2.6,0-3.9,1.2-3.9,3.7v9H75.1z"/>
	<path class="st1" d="M106.1,73.4h-5V62.9c0-1.4-0.4-3-2.1-3c-1.9,0-2.7,1.1-2.7,3.2v10.4h-5V63c0-1.5,0-3.2-2.3-3.2
		c-1.6,0-2.5,0.9-2.5,3v10.5h-5V56h4.8v1.9c1.1-1.5,2.6-2.3,4.6-2.3c2.5,0,3.6,0.9,4.7,2.5c0.7-0.9,2-2.5,4.4-2.5
		c3.7,0,6.2,2.3,6.2,6L106.1,73.4L106.1,73.4z"/>
	<path class="st1" d="M140.9,73.4h-5V62.9c0-1.5-0.2-3-2.6-3c-2,0-3.2,1.4-3.2,3.6v9.9h-5V56h4.8v1.9c0.7-0.9,2.1-2.3,4.8-2.3
		c3.7,0,6.2,2.3,6.2,6L140.9,73.4L140.9,73.4z"/>
	<path class="st1" d="M159.3,73.4h-5V62.9c0-1.5-0.2-3-2.6-3c-2,0-3.2,1.4-3.2,3.6v9.9h-5V56h4.8v1.9c0.7-0.9,2.1-2.3,4.8-2.3
		c3.7,0,6.2,2.3,6.2,6L159.3,73.4L159.3,73.4z"/>
	<polygon class="st0" points="168.8,73.4 163.5,73.4 163.5,54.7 156.6,54.7 156.6,50 175.7,50 175.7,54.7 168.8,54.7 	"/>
	<path class="st0" d="M173.8,79.1c-0.2,0-0.4,0-0.6,0H173v-4.2h0.4c0.1,0,0.4,0,0.5,0h0.4c1.5,0,2.2,0,2.6-2l-6.3-16.8h5.6l3.4,11.6
		l3.3-11.6h5.3l-6,16.7c-2,5.8-2.6,6.2-6.2,6.2l0,0h-0.7c-0.2,0-0.5,0-0.7,0C174.3,79.1,174,79.1,173.8,79.1L173.8,79.1z"/>
	<path class="st0" d="M194.7,73.5h-0.6c-4,0-4.8-1.5-4.8-4v-9.7H187v-3.7h2.3v-4.8h5v4.8h2.8v3.7h-2.8v8.7c0,0.9,0,1.1,1.5,1.1
		c0.2,0,0.6,0,0.8-0.1h0.4v0.4v3.7h-0.2C196,73.5,195.4,73.5,194.7,73.5L194.7,73.5z"/>
	<path class="st0" d="M232.4,73.4h-5V62.9c0-1.5-0.2-3-2.6-3c-2,0-3.2,1.4-3.2,3.6v9.9h-5V56h4.8v1.9c0.7-0.9,2.1-2.3,4.8-2.3
		c3.7,0,6.2,2.3,6.2,6L232.4,73.4L232.4,73.4z"/>
	<path class="st1" d="M115.2,66c-1.9,0.4-2.8,0.7-2.8,2.2c0,1.8,1.6,1.8,1.8,1.8c1.8,0,3.6-1.2,3.6-3v-1.6
		C117.4,65.7,116.6,65.9,115.2,66L115.2,66z M112.9,73.9c-2.5,0-5.4-1.4-5.4-5.1c0-3.2,1.9-5.1,5.1-5.6l4-0.6
		c1.2-0.1,1.3-0.7,1.3-1.1c0-1.5-1.3-1.6-2.7-1.6c-1.9,0-2.3,1.1-2.5,2.1v0.2H108v-0.4c0.6-5.5,4.4-6.2,7.8-6.2c1.6,0,7,0.4,7,5.1
		v9.1c0,1.9,0.4,3.2,0.4,3.2l0.1,0.4h-4.8l-0.1-0.2c-0.2-0.6-0.2-0.9-0.4-1.5C117.1,72.7,115.6,73.9,112.9,73.9L112.9,73.9z"/>
	<path class="st1" d="M29,59.6c-1.8,0-3,1.1-3.3,3h6.7C31.9,60.4,30.3,59.6,29,59.6L29,59.6z M29.4,73.9c-5.7,0-8.7-3.2-8.7-9.5
		c0-1.5,0.4-8.8,8.4-8.8c2.5,0,8.2,0.9,8.2,9.6v1.1H25.6c0.2,1.6,0.9,3.5,3.7,3.5c0.7,0,2.2-0.1,2.6-1.4v-0.2h5.1L37,68.5
		C35.7,73.2,31.6,73.9,29.4,73.9L29.4,73.9z"/>
	<path class="st1" d="M60.5,59.6c-1.8,0-3,1.1-3.3,3h6.7C63.5,60.4,61.9,59.6,60.5,59.6L60.5,59.6z M60.9,73.9
		c-5.7,0-8.7-3.2-8.7-9.5c0-1.5,0.4-8.8,8.4-8.8c2.5,0,8.2,0.9,8.2,9.6v1.1H57.2c0.2,1.6,0.9,3.5,3.7,3.5c0.7,0,2.2-0.1,2.6-1.4
		l0.1-0.2h5.1l-0.1,0.4C67.3,73.2,63.2,73.9,60.9,73.9L60.9,73.9z"/>
	<path class="st1" d="M3.4,87.1l1.5-5.1l1.4,5.1h1.5l1.9-6.2H8.5L7.1,86l-1.4-5.1H4.2L2.7,86l-1.4-5.1H0l1.9,6.2H3.4L3.4,87.1z
		 M13.5,87.1l1.5-5.1l1.4,5.1h1.5l1.9-6.2h-1.2L17.2,86l-1.4-5.1h-1.5L12.9,86l-1.4-5.1h-1.3l1.9,6.2H13.5L13.5,87.1z M23.4,87.1
		l1.5-5.1l1.4,5.1h1.5l1.9-6.2h-1.2L27.1,86l-1.4-5.1h-1.5L22.8,86l-1.4-5.1h-1.3l1.9,6.2H23.4L23.4,87.1z M31.6,87.1v-1.3h-1.3v1.3
		H31.6L31.6,87.1z M35,87.1v-3.7h3.7v3.7h1.4v-8.3h-1.4v3.5H35v-3.5h-1.4v8.3H35L35,87.1z M42.9,83.5c0-0.9,0.6-1.9,1.6-1.9
		c1.2,0,1.4,0.9,1.4,1.9H42.9L42.9,83.5z M47,84.3v-0.4c0-1.8-0.7-3.2-2.6-3.2c-1.8,0-2.8,1.5-2.8,3.3c0,2,1.1,3.3,3.2,3.3
		c0.7,0,1.4-0.1,2-0.4L46.7,86c-0.5,0.2-1.2,0.4-1.6,0.4c-1.4,0-2.1-0.9-2.1-2.1H47L47,84.3z M49.6,87.1v-9h-1.3v9H49.6L49.6,87.1z
		 M52.5,87.1v-9h-1.3v9H52.5L52.5,87.1z M55.2,83.5c0-0.9,0.6-1.9,1.6-1.9c1.2,0,1.4,0.9,1.4,1.9H55.2L55.2,83.5z M59.4,84.3v-0.4
		c0-1.8-0.7-3.2-2.6-3.2c-1.8,0-2.8,1.5-2.8,3.3c0,2,1.1,3.3,3.2,3.3c0.7,0,1.4-0.1,2-0.4L59.1,86c-0.5,0.2-1.2,0.4-1.6,0.4
		c-1.4,0-2.1-0.9-2.1-2.1H59.4L59.4,84.3z M61.9,87.1v-2.9c0-0.9,0.4-2.2,1.5-2.2c0.2,0,0.4,0,0.5,0.1l0.1-1.2c-0.2,0-0.4,0-0.5,0
		c-0.8,0-1.4,0.7-1.8,1.3V81h-1.2c0,0.5,0.1,0.9,0.1,1.4v4.8h1.2V87.1z M66.3,87.1v-3.4c0-0.9,0.4-2,1.4-2c0.8,0,1.2,0.6,1.2,1.4v4
		h1.3v-3.4c0-0.9,0.4-2,1.4-2c0.8,0,1.1,0.6,1.1,1.4v4h1.3v-4.2c0-1.3-0.6-2.2-2-2.2c-0.8,0-1.6,0.5-1.9,1.3
		c-0.2-0.7-0.8-1.3-1.9-1.3c-0.8,0-1.5,0.4-1.9,1.2v-1.1h-1.2c0,0.5,0.1,0.9,0.1,1.4V87h1.1V87.1z M79.1,84v0.4c0,1.1-0.5,2-1.6,2
		c-0.7,0-1.2-0.4-1.2-1.1c0-1.1,1.2-1.3,2.5-1.3H79.1L79.1,84z M80.4,87.1c0-0.5-0.1-0.8-0.1-1.4v-2.6c0-1.6-0.9-2.3-2.6-2.3
		c-0.6,0-1.4,0.1-2,0.5l0.1,0.9c0.6-0.4,1.2-0.5,1.9-0.5c0.9,0,1.4,0.5,1.4,1.4v0.2c-0.2,0-0.6,0-0.7,0c-1.9,0-3.3,0.5-3.3,2.1
		c0,1.3,0.9,1.9,2.1,1.9c0.9,0,1.5-0.5,2-1.2v0.9L80.4,87.1L80.4,87.1z M83.2,87.1v-3.4c0-0.9,0.4-2,1.5-2c1.1,0,1.3,0.8,1.3,1.8
		v3.6h1.3v-4c0-1.4-0.6-2.5-2.1-2.5c-0.9,0-1.6,0.4-2,1.2v-1.1H82c0,0.5,0.1,0.9,0.1,1.4V87h1.1V87.1z M90.2,87.1v-3.4
		c0-0.9,0.4-2,1.5-2c1.1,0,1.3,0.8,1.3,1.8v3.6h1.3v-4c0-1.4-0.6-2.5-2.1-2.5c-0.9,0-1.6,0.4-2,1.2v-1.1H89c0,0.5,0.1,0.9,0.1,1.4
		V87h1.1V87.1z M99.1,87.1v-7.3h2.6v-1.2h-6.4v1.2h2.6v7.3H99.1L99.1,87.1z M101.2,89.9c0.2,0.1,0.6,0.1,0.9,0.1
		c1.3,0,1.8-1.1,2.1-2l2.3-7.1h-1.3l-1.5,5.1l-1.5-5.1h-1.3l2.2,6.4l-0.1,0.4c-0.2,0.8-0.5,1.3-1.2,1.3c-0.2,0-0.4,0-0.6-0.1
		L101.2,89.9L101.2,89.9z M110.8,86.1c-0.2,0.1-0.5,0.1-0.7,0.1c-0.6,0-0.8-0.5-0.8-1.1v-3.5h1.4v-0.9h-1.4V79l-1.3,0.5v1.4h-1.2
		v0.9h1.2v3.4c0,1.2,0.2,2.1,1.6,2.1c0.4,0,0.8-0.1,1.2-0.2L110.8,86.1L110.8,86.1z M113.3,87.1c0.4,0.1,0.8,0.2,1.3,0.2
		c2,0,3-1.4,3-3.3c0-2-1.1-3.3-3-3.3c-1.9,0-3,1.3-3,3.3C111.6,85.4,112.2,86.5,113.3,87.1L113.3,87.1z M113.2,85.6
		c-0.2-0.5-0.4-1.1-0.4-1.6c0-1.1,0.5-2.3,1.8-2.3c1.3,0,1.8,1.2,1.8,2.3c0,1.2-0.5,2.3-1.8,2.3C113.9,86.3,113.6,86,113.2,85.6
		L113.2,85.6z M120.2,87.1v-3.4c0-0.9,0.4-2,1.5-2c1.1,0,1.3,0.8,1.3,1.8v3.6h1.3v-4c0-1.4-0.6-2.5-2.1-2.5c-0.9,0-1.6,0.4-2,1.2
		v-1.1h-1.2c0,0.5,0,0.9,0,1.4V87h1.2V87.1z M127.6,87.1v-1.3h-1.3v1.3H127.6L127.6,87.1z M133.9,86c-0.5,0.2-0.8,0.2-1.3,0.2
		c-1.5,0-2.2-1.1-2.2-2.3c0-1.3,0.7-2.3,2.1-2.3c0.5,0,0.9,0.1,1.3,0.2l0.1-1.1c-0.6-0.2-1.1-0.2-1.5-0.2c-2,0-3.3,1.3-3.3,3.3
		c0,1.9,1.1,3.3,3.3,3.3c0.6,0,1.1,0,1.5-0.2L133.9,86L133.9,86z M136.6,87.1c0.4,0.1,0.8,0.2,1.3,0.2c2,0,3-1.4,3-3.3
		c0-2-1.1-3.3-3-3.3c-1.9,0-3,1.3-3,3.3C134.9,85.4,135.4,86.5,136.6,87.1L136.6,87.1z M136.6,85.6c-0.2-0.5-0.4-1.1-0.4-1.6
		c0-1.1,0.5-2.3,1.8-2.3s1.8,1.2,1.8,2.3c0,1.2-0.5,2.3-1.8,2.3C137.3,86.3,136.8,86,136.6,85.6L136.6,85.6z M143.6,87.1v-3.4
		c0-0.9,0.4-2,1.4-2c0.8,0,1.1,0.6,1.1,1.4v4h1.3v-3.4c0-0.9,0.4-2,1.4-2c0.8,0,1.1,0.6,1.1,1.4v4h1.3v-4.2c0-1.3-0.6-2.2-2-2.2
		c-0.8,0-1.6,0.5-1.9,1.3c-0.2-0.7-0.8-1.3-1.9-1.3c-0.8,0-1.5,0.4-1.9,1.2v-1.1h-1.2c0,0.5,0.1,0.9,0.1,1.4V87h1.2V87.1z
		 M154.4,87.1v-1.3h-1.3v1.3H154.4L154.4,87.1z M159.9,84v0.4c0,1.1-0.5,2-1.6,2c-0.7,0-1.2-0.4-1.2-1.1c0-1.1,1.2-1.3,2.5-1.3
		H159.9L159.9,84z M161.2,87.1c0-0.5-0.1-0.8-0.1-1.4v-2.6c0-1.6-0.9-2.3-2.6-2.3c-0.6,0-1.4,0.1-2,0.5l0.1,0.9
		c0.6-0.4,1.2-0.5,1.9-0.5c0.9,0,1.4,0.5,1.4,1.4v0.2c-0.2,0-0.6,0-0.7,0c-1.9,0-3.3,0.5-3.3,2.1c0,1.3,0.9,1.9,2.1,1.9
		c0.9,0,1.5-0.5,2-1.2v0.9L161.2,87.1L161.2,87.1z M164,87.1v-2.9c0-0.9,0.4-2.2,1.5-2.2c0.2,0,0.4,0,0.5,0.1l0.1-1.2
		c-0.2,0-0.4,0-0.6,0c-0.8,0-1.4,0.7-1.6,1.3V81h-1.2c0,0.5,0.1,0.9,0.1,1.4v4.8h1.2V87.1z"/>
</g>
</svg>
