<?xml version="1.0" encoding="utf-8"?>
<!-- Generator: Adobe Illustrator 26.0.3, SVG Export Plug-In . SVG Version: 6.00 Build 0)  -->
<svg version="1.1" id="Capa_1" xmlns="http://www.w3.org/2000/svg" xmlns:xlink="http://www.w3.org/1999/xlink" x="0px" y="0px"
	 viewBox="0 0 199 140" style="enable-background:new 0 0 199 140;" xml:space="preserve">
<style type="text/css">
	.st0{fill-rule:evenodd;clip-rule:evenodd;fill:#999999;}
	.st1{fill-rule:evenodd;clip-rule:evenodd;fill:#666666;}
	.st2{fill:#999999;}
</style>
<g>
	<path class="st0" d="M110.7,69.2c-3.4-4.5-0.7-11.4,5.6-11.5H129l-1.1,3.1h-6.7h-3.5c-1.7,0-2.7,2.1-1.7,3.4c1.6,2.5,4.3,4.2,6,6.7
		c3.7,5,0,11.4-5.5,11.5h-14l1.1-3.1h7.6h3.4c1.7,0,2.6-2.1,1.8-3.4C114.9,73.5,112.4,71.3,110.7,69.2 M97.8,82.3h-6.9l9-24.7h6.9
		L97.8,82.3z M132,82.3h-7l9.1-24.7h6.9L132,82.3z M142.5,65.1c2.4-5.1,7.5-7.9,12.2-7.7h1.8h2.5c3.6,0.2,5.8,3.2,6,5.7
		c0,0.6,0,1.2,0,1.6c-0.1,0.3-0.1,0.6-0.2,0.8c-0.8,3.2-1.9,6.4-3.4,9.3c-2.4,5.1-7.5,7.9-12.2,7.7h-1.8l0,0H145
		c-3.6-0.2-5.8-3.2-6-5.7c0-0.6,0-1.2,0-1.6c0.1-0.3,0.1-0.6,0.2-0.8C139.8,71.3,141,68,142.5,65.1 M155.6,60L155.6,60
		c-2.6,0.1-4.7,1.5-5.6,4l-4.6,12.5c-0.1,0.3-0.2,0.6-0.2,1c0,1.3,1,2.5,2.3,2.5h0.7c2.6-0.1,4.7-1.5,5.6-4l4.6-12.6
		c0.1-0.3,0.2-0.6,0.2-0.9l0,0c0-1.3-1-2.4-2.4-2.5H155.6z M81.7,74.6l11.3-17h4.1L81.3,81.2c-0.4,0.6-1.1,1-1.9,1h-0.1h-0.1l0,0H79
		h-2.4h-1.2l-2-24.5h6.9L81.7,74.6z M172.3,65.6v-0.3l-6.3,17h-3.6l9.1-24.7h4.5l6.5,16.7l6.1-16.7h3.6l-9.1,24.7h-3.3
		c-0.9-0.1-1.7-0.6-2-1.4L172.3,65.6z"/>
	<path class="st1" d="M35.7,82.3h-7.4l9.1-24.6h0.2h7h0.2L35.7,82.3z M13,67.2h8.8l3.5-9.5h7.4l-8.5,23.2l0,0
		c-0.3,0.9-1.2,1.5-2.1,1.5h-5.8l4.3-11.8h-8.8L7.4,82.3H0l9-24.7h7.4L13,67.2z M53.6,66.9l12-9.3h5.5l-12.3,9.5l7.8,15.2h-6.2
		c0,0,0,0,0.1,0c-1,0.1-1.9-0.5-2.2-1.3l0,0l0,0l-4.9-9.5l-1.8,1.4l-3.5,9.5h-7.4l9-24.7h7.4L53.6,66.9z"/>
	<path class="st2" d="M195.1,61.8v-3.1h1.4c0.3,0,0.5,0,0.6,0.1s0.3,0.2,0.4,0.3c0.1,0.1,0.1,0.3,0.1,0.5s-0.1,0.4-0.2,0.6
		c-0.1,0.2-0.4,0.2-0.7,0.3c0.1,0.1,0.2,0.1,0.2,0.2c0.1,0.1,0.2,0.3,0.3,0.4l0.5,0.9h-0.5l-0.4-0.7c-0.1-0.2-0.2-0.3-0.3-0.4
		c-0.1-0.1-0.1-0.2-0.2-0.2c-0.1,0-0.1-0.1-0.2-0.1c0,0-0.1,0-0.2,0h-0.5V62h-0.3V61.8z M195.5,60h0.9c0.2,0,0.3,0,0.4-0.1
		c0.1,0,0.2-0.1,0.2-0.2c0.1-0.1,0.1-0.2,0.1-0.3s-0.1-0.3-0.2-0.4c-0.1-0.1-0.3-0.2-0.5-0.2h-1V60H195.5z"/>
	<path class="st2" d="M196.4,57.6c-1.5,0-2.6,1.2-2.6,2.6c0,1.5,1.2,2.6,2.6,2.6c1.5,0,2.6-1.2,2.6-2.6S197.8,57.6,196.4,57.6
		 M196.4,62.6c-1.3,0-2.3-1.1-2.3-2.4c0-1.3,1-2.3,2.3-2.3s2.3,1,2.3,2.3C198.7,61.5,197.7,62.6,196.4,62.6"/>
</g>
</svg>
